<?xml version="1.0" encoding="UTF-8"?>
<svg id="Layer_1" data-name="Layer 1" xmlns="http://www.w3.org/2000/svg" viewBox="0 0 269.77 269.77">
  <rect width="269.77" height="269.77" fill="#c22034"/>
  <path d="m36.1,62.71h-15.5v-7.75l13.4-31.5h10.99v31.82h5.14v7.43h-5.14v12.19h-8.89v-12.19Zm0-7.43v-21.85l-7.81,21.85h7.81Z" fill="#fff"/>
  <path d="m118.18,144.69v77.39l-48.61-14.67v-90.79l48.61,28.06Zm5.34.19l48.92-28.25v90.78l-48.92,14.71v-77.24Zm87.07,60.93l-5.74,20.1-5.75-20.1h0v-80.78h11.5v80.78Zm-27.71-85.28v93.09l-4.79,1.41-54.18,17.2h-5.98l-58.73-16.26v-95.44l5.22-4.12v95.9l53.76,15.02h5.49l54.01-17.45v-93.47l5.21,4.12Zm27.71-6.2v6.2h-11.5v-6.2c0-3.18,2.57-5.75,5.75-5.75s5.74,2.57,5.74,5.75Z" fill="#fff" fill-rule="evenodd"/>
  <g>
    <path d="m80.53,47c-.41-.19-.85-.49-1.31-.87-.46-.39-.9-.83-1.36-1.33-.44-.49-.83-.97-1.14-1.46-.07.02-.15.02-.22.02h-.22c-1.38,0-2.5-.27-3.32-.78-.83-.51-1.41-1.26-1.77-2.23s-.53-2.11-.53-3.45v-7.35c0-1.33.17-2.45.53-3.4.36-.95.95-1.67,1.77-2.18.83-.51,1.94-.75,3.32-.75s2.55.24,3.37.75c.83.51,1.41,1.24,1.77,2.18.36.95.53,2.06.53,3.4v7.38c0,.95-.1,1.8-.27,2.55-.17.75-.46,1.43-.87,1.99-.41.56-.95.97-1.6,1.29.22.22.44.46.66.7.22.24.46.46.68.68.22.22.44.39.66.51l-.68,2.35Zm-4.25-6.29c.61,0,1.04-.12,1.33-.39s.49-.61.58-1.07c.1-.46.15-.95.15-1.48v-9.05c0-.56-.05-1.04-.15-1.48-.1-.44-.29-.78-.58-1.02-.29-.27-.73-.39-1.33-.39s-1.02.12-1.31.39c-.29.24-.49.58-.58,1.02-.07.44-.12.92-.12,1.48v9.05c0,.53.05,1.02.12,1.48.1.46.29.8.58,1.07s.73.39,1.31.39Z" fill="#fff"/>
    <path d="m89.87,43.36c-1.46,0-2.6-.27-3.4-.8-.8-.53-1.36-1.29-1.67-2.28-.32-1-.46-2.16-.46-3.54v-13.3h3.49v13.71c0,.61.05,1.19.12,1.75.07.53.27.97.56,1.31.32.32.75.49,1.36.49s1.09-.17,1.36-.49c.29-.34.49-.78.56-1.31.1-.56.15-1.14.15-1.75v-13.71h3.47v13.3c0,1.38-.15,2.55-.46,3.54-.32,1-.87,1.75-1.67,2.28-.8.53-1.92.8-3.4.8Z" fill="#fff"/>
    <path d="m97.01,43.09l3.93-19.66h3.83l3.93,19.66h-3.32l-.78-4.54h-3.42l-.8,4.54h-3.37Zm4.54-6.82h2.67l-1.33-8.25-1.33,8.25Z" fill="#fff"/>
    <path d="m110.53,43.09v-19.66h3.59v17.18h4.76v2.48h-8.35Z" fill="#fff"/>
    <rect x="120.7" y="23.44" width="3.54" height="19.66" fill="#fff"/>
    <path d="m129.09,43.09v-17.01h-3.13v-2.65h9.8v2.65h-3.08v17.01h-3.59Z" fill="#fff"/>
    <path d="m140.16,43.09v-7.5l-3.98-12.16h3.35l2.43,7.79,2.28-7.79h3.28l-3.93,12.16v7.5h-3.42Z" fill="#fff"/>
    <path d="m70.94,75.22v-19.66h8.25v2.52h-4.66v5.65h3.66v2.5h-3.66v6.5h4.71v2.48h-8.3Z" fill="#fff"/>
    <path d="m81.19,75.22v-19.66h4.64c1.6,0,2.84.22,3.74.66s1.55,1.12,1.92,2.01c.39.9.58,2.06.58,3.45v7.18c0,1.43-.19,2.62-.58,3.57-.36.95-1,1.65-1.89,2.11-.87.46-2.09.68-3.62.68h-4.78Zm3.59-2.5h1.09c.83,0,1.41-.15,1.77-.44.36-.29.58-.7.66-1.26.07-.56.12-1.26.12-2.06v-7.52c0-.8-.05-1.43-.17-1.92-.12-.49-.34-.85-.7-1.07-.36-.22-.92-.34-1.72-.34h-1.04v14.61Z" fill="#fff"/>
    <path d="m99.95,75.49c-1.46,0-2.6-.27-3.4-.8-.8-.53-1.36-1.29-1.67-2.28-.32-1-.46-2.16-.46-3.54v-13.3h3.49v13.71c0,.61.05,1.19.12,1.75.07.53.27.97.56,1.31.32.32.75.49,1.36.49s1.09-.17,1.36-.49c.29-.34.49-.78.56-1.31.1-.56.15-1.14.15-1.75v-13.71h3.47v13.3c0,1.38-.15,2.55-.46,3.54-.32,1-.87,1.75-1.67,2.28-.8.53-1.92.8-3.4.8Z" fill="#fff"/>
    <path d="m113.44,75.49c-1.43,0-2.57-.29-3.4-.85-.8-.56-1.38-1.33-1.7-2.31-.32-1-.49-2.11-.49-3.4v-7.01c0-1.33.17-2.5.49-3.49.32-1,.9-1.75,1.7-2.28.83-.53,1.97-.8,3.4-.8s2.43.24,3.18.7c.78.46,1.33,1.12,1.65,1.97.32.85.49,1.84.49,2.99v1.65h-3.45v-1.7c0-.56-.02-1.04-.1-1.5-.05-.46-.19-.8-.46-1.07-.24-.27-.68-.41-1.29-.41s-1.07.15-1.36.44c-.27.27-.46.66-.53,1.14-.07.46-.12,1-.12,1.6v8.54c0,.7.05,1.31.17,1.77.12.46.32.8.61,1.04.32.22.73.34,1.24.34.61,0,1.02-.15,1.26-.41.27-.29.41-.68.49-1.14s.1-1,.1-1.58v-1.77h3.45v1.58c0,1.16-.15,2.21-.46,3.11-.32.9-.85,1.6-1.63,2.11-.75.51-1.84.75-3.23.75Z" fill="#fff"/>
    <path d="m120.11,75.22l3.93-19.66h3.83l3.93,19.66h-3.32l-.78-4.54h-3.42l-.8,4.54h-3.37Zm4.54-6.82h2.67l-1.33-8.25-1.33,8.25Z" fill="#fff"/>
    <path d="m134.6,75.22v-17.01h-3.13v-2.65h9.8v2.65h-3.08v17.01h-3.59Z" fill="#fff"/>
    <rect x="143.02" y="55.56" width="3.54" height="19.66" fill="#fff"/>
    <path d="m154.79,75.49c-1.38,0-2.5-.27-3.32-.78-.83-.51-1.41-1.26-1.77-2.23s-.53-2.11-.53-3.45v-7.35c0-1.33.17-2.45.53-3.4.36-.95.95-1.67,1.77-2.18.83-.51,1.94-.75,3.32-.75s2.55.24,3.35.75c.83.51,1.41,1.24,1.77,2.18.36.95.56,2.06.56,3.4v7.38c0,1.31-.19,2.45-.56,3.42-.36.95-.95,1.7-1.77,2.23-.8.51-1.92.78-3.35.78Zm0-2.65c.61,0,1.04-.12,1.31-.39.29-.27.49-.61.58-1.07.1-.46.15-.95.15-1.48v-9.05c0-.56-.05-1.04-.15-1.48s-.29-.78-.58-1.02c-.27-.27-.7-.39-1.31-.39-.56,0-1,.12-1.29.39-.29.24-.49.58-.58,1.02-.1.44-.15.92-.15,1.48v9.05c0,.53.05,1.02.12,1.48.1.46.29.8.58,1.07s.73.39,1.31.39Z" fill="#fff"/>
    <path d="m162.97,75.22v-19.66h2.5l4.78,11.21v-11.21h2.96v19.66h-2.38l-4.81-11.75v11.75h-3.06Z" fill="#fff"/>
  </g>
</svg>