<?xml version="1.0" encoding="UTF-8"?>
<svg id="Layer_1" data-name="Layer 1" xmlns="http://www.w3.org/2000/svg" viewBox="0 0 280.4 280.4">
  <polyline points="280.4 280.4 280.4 0 0 0 0 280.4" fill="#2d9b48" fill-rule="evenodd"/>
  <path d="m25.58,74.55c-2.24-2.81-3.37-6.8-3.37-11.95v-1.85h10.17v1.78c.04,2.73.37,4.69.99,5.87.62,1.19,1.74,1.78,3.37,1.78s2.72-.6,3.27-1.81c.55-1.21.83-3.18.83-5.91s-.42-4.98-1.25-6.37c-.84-1.39-2.38-2.1-4.62-2.15-.13-.04-.75-.07-1.85-.07v-7.46h1.65c2.29,0,3.87-.62,4.75-1.85.88-1.23,1.32-3.26,1.32-6.07,0-2.29-.32-3.98-.96-5.08-.64-1.1-1.77-1.65-3.4-1.65-1.54,0-2.6.59-3.17,1.78-.57,1.19-.88,2.95-.92,5.28v2.38h-10.17v-2.9c0-4.66,1.24-8.27,3.73-10.82,2.49-2.55,5.99-3.83,10.53-3.83s8.19,1.23,10.69,3.7c2.51,2.47,3.76,6.01,3.76,10.63,0,3.08-.64,5.67-1.92,7.76-1.28,2.09-2.9,3.4-4.88,3.93,4.53,1.67,6.8,5.87,6.8,12.61,0,5.15-1.14,9.19-3.43,12.11s-5.92,4.39-10.89,4.39-8.78-1.41-11.02-4.22" fill="#fff"/>
  <path d="m234.63,175.4c0,3.96-1.56,7.56-4.09,10.15h.01s-19.72,19.77-19.72,19.77l-19.74-19.78c-2.53-2.6-4.09-6.19-4.09-10.15,0-7.93,5.4-14.36,13.1-14.36,3.85,0,8.19,4.22,10.71,6.82,2.53-2.59,7.17-6.81,11.02-6.81,7.7,0,12.79,6.43,12.79,14.35Zm-84.07,62.22c-.07,0-.13,0-.2,0-1.5-.09-2.74-1.2-2.99-2.69l-10.03-58.41-15.19,28.17c-.66,1.23-2.05,1.9-3.42,1.65-1.38-.25-2.44-1.35-2.64-2.73l-6.45-45.08-11.8,26.5c-.52,1.17-1.68,1.92-2.96,1.92h-45.86c-1.79,0-3.24-1.45-3.24-3.24s1.45-3.24,3.24-3.24h43.76l15.52-34.86c.59-1.32,1.98-2.09,3.41-1.89,1.43.2,2.56,1.32,2.76,2.75l6.65,46.49,14.98-27.78c.66-1.22,2.01-1.89,3.38-1.66,1.36.22,2.44,1.29,2.67,2.65l9.29,54.1,33.85-112.45c.38-1.28,1.52-2.19,2.85-2.3,1.34-.1,2.59.62,3.18,1.82l17.81,36.93c.78,1.61.1,3.55-1.51,4.33-1.61.78-3.55.1-4.33-1.51l-14.19-29.42-35.42,117.65c-.41,1.38-1.68,2.31-3.1,2.31Z" fill="#fff" fill-rule="evenodd"/>
  <g>
    <path d="m78.87,45.07c-1.34,0-2.42-.28-3.2-.86-.78-.58-1.36-1.39-1.72-2.42-.33-1.06-.5-2.3-.5-3.73v-6.86c0-1.46.18-2.72.5-3.78.33-1.06.93-1.87,1.77-2.42.86-.58,2.04-.86,3.53-.86,1.39,0,2.5.23,3.33.71.83.48,1.41,1.16,1.77,2.04.38.88.55,1.94.55,3.2v1.06h-3.56v-1.16c0-.66-.05-1.21-.15-1.69-.08-.48-.28-.83-.55-1.06-.28-.25-.71-.38-1.34-.38s-1.14.15-1.44.48c-.28.33-.48.73-.55,1.26-.08.53-.1,1.08-.1,1.72v8.55c0,.71.05,1.31.18,1.84s.33.93.66,1.21c.33.28.78.4,1.36.4s1.06-.15,1.39-.45c.33-.3.53-.73.66-1.26.13-.53.2-1.19.2-1.92v-1.92h-2.19v-2.35h5.55v10.37h-2.4l-.28-2.02c-.28.68-.68,1.24-1.24,1.66-.53.43-1.29.63-2.22.63Z" fill="#fff"/>
    <path d="m93.37,45.07c-1.44,0-2.6-.28-3.46-.81-.86-.53-1.46-1.31-1.84-2.32s-.55-2.19-.55-3.58v-7.64c0-1.39.18-2.55.55-3.53.38-.98.98-1.74,1.84-2.27.86-.53,2.02-.78,3.46-.78s2.65.25,3.48.78c.86.53,1.46,1.29,1.84,2.27.38.98.58,2.14.58,3.53v7.67c0,1.36-.2,2.55-.58,3.56-.38.98-.98,1.77-1.84,2.32-.83.53-1.99.81-3.48.81Zm0-2.75c.63,0,1.08-.13,1.36-.4.3-.28.5-.63.61-1.11.1-.48.15-.98.15-1.54v-9.41c0-.58-.05-1.08-.15-1.54s-.3-.81-.61-1.06c-.28-.28-.73-.4-1.36-.4-.58,0-1.03.13-1.34.4-.3.25-.5.61-.61,1.06-.1.45-.15.96-.15,1.54v9.41c0,.55.05,1.06.13,1.54.1.48.3.83.61,1.11s.76.4,1.36.4Z" fill="#fff"/>
    <path d="m107.54,45.07c-1.44,0-2.6-.28-3.46-.81-.86-.53-1.46-1.31-1.84-2.32s-.55-2.19-.55-3.58v-7.64c0-1.39.18-2.55.55-3.53.38-.98.98-1.74,1.84-2.27.86-.53,2.02-.78,3.46-.78s2.65.25,3.48.78c.86.53,1.46,1.29,1.84,2.27.38.98.58,2.14.58,3.53v7.67c0,1.36-.2,2.55-.58,3.56-.38.98-.98,1.77-1.84,2.32-.83.53-1.99.81-3.48.81Zm0-2.75c.63,0,1.08-.13,1.36-.4.3-.28.5-.63.61-1.11.1-.48.15-.98.15-1.54v-9.41c0-.58-.05-1.08-.15-1.54s-.3-.81-.61-1.06c-.28-.28-.73-.4-1.36-.4-.58,0-1.03.13-1.34.4-.3.25-.5.61-.61,1.06-.1.45-.15.96-.15,1.54v9.41c0,.55.05,1.06.13,1.54.1.48.3.83.61,1.11s.76.4,1.36.4Z" fill="#fff"/>
    <path d="m116.16,44.79v-20.43h4.82c1.66,0,2.95.23,3.88.68s1.61,1.16,1.99,2.09c.4.93.61,2.14.61,3.58v7.47c0,1.49-.2,2.72-.61,3.71-.38.98-1.03,1.72-1.97,2.19-.91.48-2.17.71-3.76.71h-4.97Zm3.73-2.6h1.14c.86,0,1.46-.15,1.84-.45.38-.3.61-.73.68-1.31.08-.58.13-1.31.13-2.14v-7.82c0-.83-.05-1.49-.18-1.99-.13-.5-.35-.88-.73-1.11-.38-.23-.96-.35-1.79-.35h-1.08v15.19Z" fill="#fff"/>
    <path d="m136.32,44.79v-20.43h3.71v8.55h4.19v-8.55h3.71v20.43h-3.71v-9.23h-4.19v9.23h-3.71Z" fill="#fff"/>
    <path d="m151.02,44.79v-20.43h8.58v2.62h-4.84v5.88h3.81v2.6h-3.81v6.76h4.89v2.57h-8.63Z" fill="#fff"/>
    <path d="m160.75,44.79l4.09-20.43h3.99l4.09,20.43h-3.46l-.81-4.72h-3.56l-.83,4.72h-3.51Zm4.72-7.09h2.77l-1.39-8.58-1.39,8.58Z" fill="#fff"/>
    <path d="m174.92,44.79v-20.43h3.73v17.86h4.94v2.57h-8.68Z" fill="#fff"/>
    <path d="m185.58,44.79v-17.68h-3.25v-2.75h10.19v2.75h-3.2v17.68h-3.73Z" fill="#fff"/>
    <path d="m194.4,44.79v-20.43h3.71v8.55h4.19v-8.55h3.71v20.43h-3.71v-9.23h-4.19v9.23h-3.71Z" fill="#fff"/>
    <path d="m72.72,78.18l4.09-20.43h3.99l4.09,20.43h-3.46l-.81-4.72h-3.56l-.83,4.72h-3.51Zm4.72-7.09h2.77l-1.39-8.58-1.39,8.58Z" fill="#fff"/>
    <path d="m86.88,78.18v-20.43h2.6l4.97,11.65v-11.65h3.08v20.43h-2.47l-4.99-12.21v12.21h-3.18Z" fill="#fff"/>
    <path d="m100.6,78.18v-20.43h4.82c1.66,0,2.95.23,3.88.68s1.61,1.16,1.99,2.09c.4.93.61,2.14.61,3.58v7.47c0,1.49-.2,2.72-.61,3.71-.38.98-1.03,1.72-1.97,2.19-.91.48-2.17.71-3.76.71h-4.97Zm3.73-2.6h1.14c.86,0,1.46-.15,1.84-.45.38-.3.61-.73.68-1.31.08-.58.13-1.31.13-2.14v-7.82c0-.83-.05-1.49-.18-1.99-.13-.5-.35-.88-.73-1.11-.38-.23-.96-.35-1.79-.35h-1.08v15.19Z" fill="#fff"/>
    <path d="m122.86,78.18l-2.9-20.43h3.13l1.69,13.24,2.12-13.19h2.55l2.17,13.19,1.66-13.24h3.08l-2.85,20.43h-3.03l-2.27-13.7-2.25,13.7h-3.1Z" fill="#fff"/>
    <path d="m138.64,78.18v-20.43h8.58v2.62h-4.84v5.88h3.81v2.6h-3.81v6.76h4.89v2.57h-8.63Z" fill="#fff"/>
    <path d="m149.41,78.18v-20.43h3.73v17.86h4.94v2.57h-8.68Z" fill="#fff"/>
    <path d="m159.99,78.18v-20.43h3.73v17.86h4.94v2.57h-8.68Z" fill="#fff"/>
    <rect x="169.52" y="69.63" width="6.1" height="2.35" fill="#fff"/>
    <path d="m178.04,78.18v-20.43h5.02c.91,0,1.72.08,2.45.25.73.18,1.36.45,1.89.86.53.38.96.91,1.24,1.59s.43,1.51.43,2.55c0,.83-.13,1.54-.35,2.12s-.55,1.06-.98,1.41c-.43.33-.98.55-1.64.68.81.13,1.46.43,1.99.86.53.43.93.98,1.19,1.66.28.68.4,1.51.4,2.5s-.13,1.84-.38,2.6c-.23.73-.61,1.36-1.08,1.87-.48.48-1.06.86-1.79,1.11-.71.25-1.54.38-2.5.38h-5.88Zm3.73-2.62h1.41c1.14,0,1.89-.28,2.3-.81.4-.55.61-1.41.61-2.55,0-.83-.1-1.49-.3-1.99-.18-.53-.5-.91-.96-1.16-.43-.25-1.03-.38-1.77-.38h-1.29v6.89Zm0-9.46h1.26c.73,0,1.31-.1,1.72-.33.4-.23.68-.55.83-1.01.18-.45.25-1.03.25-1.72,0-.73-.13-1.29-.38-1.66-.23-.4-.61-.68-1.08-.81-.48-.15-1.11-.23-1.87-.23h-.73v5.75Z" fill="#fff"/>
    <path d="m192.06,78.18v-20.43h8.58v2.62h-4.84v5.88h3.81v2.6h-3.81v6.76h4.89v2.57h-8.63Z" fill="#fff"/>
    <rect x="202.92" y="57.75" width="3.68" height="20.43" fill="#fff"/>
    <path d="m209.72,78.18v-20.43h2.6l4.97,11.65v-11.65h3.08v20.43h-2.47l-4.99-12.21v12.21h-3.18Z" fill="#fff"/>
    <path d="m228.56,78.46c-1.34,0-2.42-.28-3.2-.86-.78-.58-1.36-1.39-1.72-2.42-.33-1.06-.5-2.3-.5-3.73v-6.86c0-1.46.18-2.72.5-3.78.33-1.06.93-1.87,1.77-2.42.86-.58,2.04-.86,3.53-.86,1.39,0,2.5.23,3.33.71.83.48,1.41,1.16,1.77,2.04.38.88.55,1.94.55,3.2v1.06h-3.56v-1.16c0-.66-.05-1.21-.15-1.69-.08-.48-.28-.83-.55-1.06-.28-.25-.71-.38-1.34-.38s-1.14.15-1.44.48c-.28.33-.48.73-.55,1.26-.08.53-.1,1.08-.1,1.72v8.55c0,.71.05,1.31.18,1.84s.33.93.66,1.21c.33.28.78.4,1.36.4s1.06-.15,1.39-.45c.33-.3.53-.73.66-1.26.13-.53.2-1.19.2-1.92v-1.92h-2.19v-2.35h5.55v10.37h-2.4l-.28-2.02c-.28.68-.68,1.24-1.24,1.66-.53.43-1.29.63-2.22.63Z" fill="#fff"/>
  </g>
</svg>