<?xml version="1.0" encoding="UTF-8"?>
<svg id="Layer_1" data-name="Layer 1" xmlns="http://www.w3.org/2000/svg" viewBox="0 0 252.82 252.82">
  <rect width="252.82" height="252.82" fill="#1d3767"/>
  <path d="m22.03,31.51c-.44.24-1.71.73-3.81,1.49-1.67.56-2.72.93-3.15,1.13v-6.84c1.35-.52,2.98-1.31,4.91-2.38,1.92-1.07,3.28-2.05,4.08-2.92h7.2v48.21h-9.23V31.51Z" fill="#fff"/>
  <path d="m49.83,29.01h-13.1v-7.02h22.08v6.01l-10.18,42.2h-8.93l10.12-41.18Z" fill="#fff"/>
  <path d="m189.46,153.46c0-17.84-14.19-32.41-31.86-33.06-4.55-12.84-16.81-22.07-31.19-22.07s-26.64,9.23-31.19,22.07c-17.68.65-31.86,15.22-31.86,33.06,0,10.58,5,20.02,12.76,26.08-.84,2.92-1.31,6-1.31,9.18,0,18.23,14.84,33.07,33.08,33.07,6.92,0,13.35-2.14,18.67-5.79,5.26,3.52,11.57,5.57,18.35,5.57,18.24,0,33.08-14.84,33.08-33.08,0-3.12-.44-6.14-1.25-9,7.73-6.06,12.71-15.48,12.71-26.04m-36.63-22.04c0,13.24-9.8,24.2-22.52,26.1-.21-1.33-.34-2.68-.34-4.06,0-13.24,9.8-24.21,22.52-26.1.21,1.33.35,2.68.35,4.06m-26.3,76c-4.95-4.8-8.03-11.51-8.03-18.92s2.98-13.92,7.79-18.71c4.94,4.8,8.03,11.51,8.03,18.93s-2.98,13.92-7.79,18.7m-26.2-80.06c12.72,1.89,22.52,12.86,22.52,26.1,0,1.38-.14,2.73-.35,4.06-12.72-1.89-22.52-12.86-22.52-26.1,0-1.39.14-2.74.35-4.06m19.7,37.92c-4.35,8.64-13.28,14.6-23.6,14.6-4.37,0-8.5-1.09-12.14-2.98,4.35-8.64,13.28-14.6,23.6-14.6,4.38,0,8.5,1.09,12.13,2.98m12.67-.18c3.66-1.92,7.81-3.02,12.22-3.02,10.39,0,19.37,6.04,23.68,14.78-3.66,1.92-7.82,3.02-12.22,3.02-10.39,0-19.37-6.04-23.68-14.78m-6.29-60.1c10.83,0,20.14,6.55,24.22,15.89-10.75,1.9-19.72,8.99-24.22,18.59-4.49-9.6-13.47-16.7-24.22-18.59,4.08-9.34,13.39-15.89,24.22-15.89m-56.39,48.46c0-13.61,10.35-24.85,23.59-26.27-.17,1.39-.28,2.8-.28,4.23,0,9.67,4.17,18.38,10.81,24.44-10.97,1.25-20.33,7.88-25.36,17.19-5.36-4.84-8.75-11.82-8.75-19.59m11.46,35.26c0-1.88.2-3.71.58-5.47,4.35,2.11,9.23,3.29,14.38,3.29,5.79,0,11.23-1.5,15.97-4.12-.37,1.97-.57,4.01-.57,6.08,0,8.94,3.57,17.05,9.35,23.01-3.91,2.29-8.44,3.63-13.29,3.63-14.57,0-26.42-11.85-26.42-26.41m89.86-.22c0,14.56-11.85,26.42-26.42,26.42-4.74,0-9.18-1.27-13.03-3.47,5.62-5.93,9.08-13.94,9.08-22.73,0-2.17-.22-4.28-.61-6.33,4.75,2.64,10.21,4.15,16.02,4.15,5.17,0,10.06-1.19,14.42-3.32.35,1.71.53,3.47.53,5.28m-22.46-32.83c6.52-6.05,10.6-14.67,10.6-24.24,0-1.43-.1-2.84-.28-4.23,13.24,1.42,23.59,12.65,23.59,26.27,0,7.73-3.36,14.68-8.68,19.52-4.98-9.33-14.29-16-25.24-17.31" fill="#fff"/>
  <g>
    <path d="m80.8,40.38v-18.42h5.41c1.11,0,2,.2,2.68.61.71.41,1.21,1,1.52,1.8.34.77.5,1.71.5,2.82,0,1.21-.2,2.16-.61,2.91-.41.73-.98,1.25-1.73,1.59-.73.34-1.59.5-2.59.5h-1.82v8.19h-3.37Zm3.37-10.55h1.27c.61,0,1.07-.09,1.41-.25.34-.18.59-.45.71-.84.14-.39.2-.91.2-1.57s-.05-1.21-.16-1.61c-.09-.43-.3-.73-.64-.93-.32-.2-.82-.3-1.52-.3h-1.27v5.5Z" fill="#fff"/>
    <path d="m90.28,40.38l3.68-18.42h3.59l3.68,18.42h-3.12l-.73-4.25h-3.21l-.75,4.25h-3.16Zm4.25-6.39h2.5l-1.25-7.73-1.25,7.73Z" fill="#fff"/>
    <path d="m102.55,40.38v-18.42h4.41c1.25,0,2.3.16,3.14.45.86.3,1.52.8,1.96,1.5.45.71.68,1.68.68,2.91,0,.75-.07,1.41-.2,2-.14.59-.36,1.09-.71,1.52-.32.41-.77.73-1.34.96l2.57,9.08h-3.37l-2.23-8.44h-1.55v8.44h-3.37Zm3.37-10.55h1.05c.66,0,1.16-.09,1.55-.27.39-.2.68-.5.84-.91.16-.43.25-.96.25-1.61,0-.93-.18-1.61-.52-2.07-.34-.48-.98-.71-1.93-.71h-1.23v5.57Z" fill="#fff"/>
    <path d="m116.29,40.38v-15.94h-2.93v-2.48h9.19v2.48h-2.89v15.94h-3.37Z" fill="#fff"/>
    <path d="m123.69,40.38v-18.42h2.34l4.48,10.51v-10.51h2.77v18.42h-2.23l-4.5-11.01v11.01h-2.87Z" fill="#fff"/>
    <path d="m135.54,40.38v-18.42h7.73v2.37h-4.37v5.3h3.43v2.34h-3.43v6.1h4.41v2.32h-7.78Z" fill="#fff"/>
    <path d="m144.74,40.38v-18.42h4.41c1.25,0,2.3.16,3.14.45.86.3,1.52.8,1.96,1.5.45.71.68,1.68.68,2.91,0,.75-.07,1.41-.2,2-.14.59-.36,1.09-.71,1.52-.32.41-.77.73-1.34.96l2.57,9.08h-3.37l-2.23-8.44h-1.55v8.44h-3.37Zm3.37-10.55h1.05c.66,0,1.16-.09,1.55-.27.39-.2.68-.5.84-.91.16-.43.25-.96.25-1.61,0-.93-.18-1.61-.52-2.07-.34-.48-.98-.71-1.93-.71h-1.23v5.57Z" fill="#fff"/>
    <path d="m161.55,40.63c-1.11,0-2.02-.2-2.77-.64-.75-.43-1.3-1.07-1.68-1.91-.39-.84-.59-1.87-.64-3.07l2.89-.57c.02.71.11,1.34.25,1.89.16.55.36.98.66,1.27.3.3.71.43,1.18.43.55,0,.93-.16,1.16-.48.23-.34.34-.75.34-1.25,0-.8-.18-1.46-.55-1.98-.36-.52-.84-1.02-1.46-1.55l-2.32-2.05c-.66-.57-1.18-1.18-1.57-1.87-.39-.71-.57-1.55-.57-2.57,0-1.46.43-2.57,1.27-3.37.84-.8,2-1.18,3.48-1.18.86,0,1.59.14,2.16.41.57.25,1.02.61,1.36,1.09.34.48.61,1,.77,1.61.16.59.27,1.23.32,1.89l-2.87.5c-.02-.57-.09-1.09-.2-1.55-.09-.45-.27-.82-.52-1.07-.25-.25-.61-.39-1.09-.39s-.89.16-1.16.5c-.25.32-.39.73-.39,1.21,0,.61.14,1.14.39,1.55.25.39.64.8,1.11,1.23l2.3,2.02c.75.64,1.41,1.39,1.93,2.25.55.84.82,1.89.82,3.09,0,.89-.2,1.66-.59,2.34s-.91,1.23-1.61,1.61c-.68.39-1.48.57-2.41.57Z" fill="#fff"/>
    <path d="m167.65,40.38v-18.42h3.34v7.71h3.78v-7.71h3.34v18.42h-3.34v-8.32h-3.78v8.32h-3.34Z" fill="#fff"/>
    <rect x="180.48" y="21.96" width="3.32" height="18.42" fill="#fff"/>
    <path d="m186.1,40.38v-18.42h5.41c1.11,0,2,.2,2.68.61.71.41,1.21,1,1.52,1.8.34.77.5,1.71.5,2.82,0,1.21-.2,2.16-.61,2.91-.41.73-.98,1.25-1.73,1.59-.73.34-1.59.5-2.59.5h-1.82v8.19h-3.37Zm3.37-10.55h1.27c.61,0,1.07-.09,1.41-.25.34-.18.59-.45.71-.84.14-.39.2-.91.2-1.57s-.05-1.21-.16-1.61c-.09-.43-.3-.73-.64-.93-.32-.2-.82-.3-1.52-.3h-1.27v5.5Z" fill="#fff"/>
    <path d="m202.12,40.63c-1.11,0-2.02-.2-2.77-.64-.75-.43-1.3-1.07-1.68-1.91-.39-.84-.59-1.87-.64-3.07l2.89-.57c.02.71.11,1.34.25,1.89.16.55.36.98.66,1.27.3.3.71.43,1.18.43.55,0,.93-.16,1.16-.48.23-.34.34-.75.34-1.25,0-.8-.18-1.46-.55-1.98-.36-.52-.84-1.02-1.46-1.55l-2.32-2.05c-.66-.57-1.18-1.18-1.57-1.87-.39-.71-.57-1.55-.57-2.57,0-1.46.43-2.57,1.27-3.37.84-.8,2-1.18,3.48-1.18.86,0,1.59.14,2.16.41.57.25,1.02.61,1.36,1.09.34.48.61,1,.77,1.61.16.59.27,1.23.32,1.89l-2.87.5c-.02-.57-.09-1.09-.2-1.55-.09-.45-.27-.82-.52-1.07-.25-.25-.61-.39-1.09-.39s-.89.16-1.16.5c-.25.32-.39.73-.39,1.21,0,.61.14,1.14.39,1.55.25.39.64.8,1.11,1.23l2.3,2.02c.75.64,1.41,1.39,1.93,2.25.55.84.82,1.89.82,3.09,0,.89-.2,1.66-.59,2.34s-.91,1.23-1.61,1.61c-.68.39-1.48.57-2.41.57Z" fill="#fff"/>
    <path d="m80.8,70.49v-18.42h7.57v2.32h-4.21v5.37h3.43v2.34h-3.43v8.39h-3.37Z" fill="#fff"/>
    <path d="m94.48,70.74c-1.3,0-2.34-.25-3.12-.73-.77-.48-1.32-1.18-1.66-2.09s-.5-1.98-.5-3.23v-6.89c0-1.25.16-2.3.5-3.18.34-.89.89-1.57,1.66-2.05.77-.48,1.82-.71,3.12-.71s2.39.23,3.14.71c.77.48,1.32,1.16,1.66,2.05.34.89.52,1.93.52,3.18v6.91c0,1.23-.18,2.3-.52,3.21-.34.89-.89,1.59-1.66,2.09-.75.48-1.8.73-3.14.73Zm0-2.48c.57,0,.98-.11,1.23-.36.27-.25.45-.57.55-1,.09-.43.14-.89.14-1.39v-8.48c0-.52-.05-.98-.14-1.39s-.27-.73-.55-.96c-.25-.25-.66-.36-1.23-.36-.52,0-.93.11-1.21.36-.27.23-.45.55-.55.96-.09.41-.14.86-.14,1.39v8.48c0,.5.05.96.11,1.39.09.43.27.75.55,1s.68.36,1.23.36Z" fill="#fff"/>
    <path d="m101.56,70.49v-18.42h4.41c1.25,0,2.3.16,3.14.45.86.3,1.52.8,1.96,1.5.45.71.68,1.68.68,2.91,0,.75-.07,1.41-.2,2-.14.59-.36,1.09-.71,1.52-.32.41-.77.73-1.34.96l2.57,9.08h-3.37l-2.23-8.44h-1.55v8.44h-3.37Zm3.37-10.55h1.05c.66,0,1.16-.09,1.55-.27.39-.2.68-.5.84-.91.16-.43.25-.96.25-1.61,0-.93-.18-1.61-.52-2.07-.34-.48-.98-.71-1.93-.71h-1.23v5.57Z" fill="#fff"/>
    <path d="m120.26,70.49v-15.94h-2.93v-2.48h9.19v2.48h-2.89v15.94h-3.37Z" fill="#fff"/>
    <path d="m127.52,70.49v-18.42h3.34v7.71h3.78v-7.71h3.34v18.42h-3.34v-8.32h-3.78v8.32h-3.34Z" fill="#fff"/>
    <path d="m140.09,70.49v-18.42h7.73v2.37h-4.37v5.3h3.43v2.34h-3.43v6.1h4.41v2.32h-7.78Z" fill="#fff"/>
    <path d="m158.54,70.74c-1.21,0-2.18-.25-2.89-.77-.71-.52-1.23-1.25-1.55-2.18-.3-.96-.45-2.07-.45-3.37v-6.19c0-1.32.16-2.46.45-3.41.3-.96.84-1.68,1.59-2.18.77-.52,1.84-.77,3.18-.77,1.25,0,2.25.2,3,.64.75.43,1.27,1.05,1.59,1.84.34.8.5,1.75.5,2.89v.96h-3.21v-1.05c0-.59-.05-1.09-.14-1.52-.07-.43-.25-.75-.5-.96-.25-.23-.64-.34-1.21-.34s-1.02.14-1.3.43c-.25.3-.43.66-.5,1.14-.07.48-.09.98-.09,1.55v7.71c0,.64.05,1.18.16,1.66s.3.84.59,1.09c.3.25.71.36,1.23.36s.96-.14,1.25-.41c.3-.27.48-.66.59-1.14.11-.48.18-1.07.18-1.73v-1.73h-1.98v-2.12h5v9.35h-2.16l-.25-1.82c-.25.61-.61,1.11-1.11,1.5-.48.39-1.16.57-2,.57Z" fill="#fff"/>
    <path d="m170.92,70.74c-1.3,0-2.34-.25-3.12-.73-.77-.48-1.32-1.18-1.66-2.09s-.5-1.98-.5-3.23v-6.89c0-1.25.16-2.3.5-3.18.34-.89.89-1.57,1.66-2.05.77-.48,1.82-.71,3.12-.71s2.39.23,3.14.71c.77.48,1.32,1.16,1.66,2.05.34.89.52,1.93.52,3.18v6.91c0,1.23-.18,2.3-.52,3.21-.34.89-.89,1.59-1.66,2.09-.75.48-1.8.73-3.14.73Zm0-2.48c.57,0,.98-.11,1.23-.36.27-.25.45-.57.55-1,.09-.43.14-.89.14-1.39v-8.48c0-.52-.05-.98-.14-1.39s-.27-.73-.55-.96c-.25-.25-.66-.36-1.23-.36-.52,0-.93.11-1.21.36-.27.23-.45.55-.55.96-.09.41-.14.86-.14,1.39v8.48c0,.5.05.96.11,1.39.09.43.27.75.55,1s.68.36,1.23.36Z" fill="#fff"/>
    <path d="m176.96,70.49l3.68-18.42h3.59l3.68,18.42h-3.12l-.73-4.25h-3.21l-.75,4.25h-3.16Zm4.25-6.39h2.5l-1.25-7.73-1.25,7.73Z" fill="#fff"/>
    <path d="m189.05,70.49v-18.42h3.37v16.1h4.46v2.32h-7.82Z" fill="#fff"/>
    <path d="m202.48,70.74c-1.11,0-2.02-.2-2.77-.64-.75-.43-1.3-1.07-1.68-1.91-.39-.84-.59-1.87-.64-3.07l2.89-.57c.02.71.11,1.34.25,1.89.16.55.36.98.66,1.27.3.3.71.43,1.18.43.55,0,.93-.16,1.16-.48.23-.34.34-.75.34-1.25,0-.8-.18-1.46-.55-1.98-.36-.52-.84-1.02-1.46-1.55l-2.32-2.05c-.66-.57-1.18-1.18-1.57-1.87-.39-.71-.57-1.55-.57-2.57,0-1.46.43-2.57,1.27-3.37.84-.8,2-1.18,3.48-1.18.86,0,1.59.14,2.16.41.57.25,1.02.61,1.36,1.09.34.48.61,1,.77,1.61.16.59.27,1.23.32,1.89l-2.87.5c-.02-.57-.09-1.09-.2-1.55-.09-.45-.27-.82-.52-1.07-.25-.25-.61-.39-1.09-.39s-.89.16-1.16.5c-.25.32-.39.73-.39,1.21,0,.61.14,1.14.39,1.55.25.39.64.8,1.11,1.23l2.3,2.02c.75.64,1.41,1.39,1.93,2.25.55.84.82,1.89.82,3.09,0,.89-.2,1.66-.59,2.34s-.91,1.23-1.61,1.61c-.68.39-1.48.57-2.41.57Z" fill="#fff"/>
  </g>
</svg>