<?xml version="1.0" encoding="UTF-8"?>
<svg id="Layer_1" data-name="Layer 1" xmlns="http://www.w3.org/2000/svg" viewBox="0 0 272.09 272.09">
  <rect width="272.09" height="272.09" fill="#01568a"/>
  <path d="m23.33,33.92c-.47.26-1.84.79-4.1,1.6-1.79.6-2.92,1-3.39,1.22v-7.37c1.45-.56,3.21-1.41,5.28-2.56,2.07-1.16,3.53-2.2,4.39-3.14h7.75v51.88h-9.93v-41.63Z" fill="#fff"/>
  <path d="m42.13,71.64c-2.29-3.07-3.43-7.21-3.43-12.42v-18.45c0-5.64,1.02-10,3.08-13.1,2.05-3.1,5.66-4.64,10.82-4.64,4.61,0,7.94,1.09,9.99,3.27,2.05,2.18,3.1,5.47,3.14,9.86l.06.9h-9.41c0-2.39-.24-4.07-.71-5.03-.47-.96-1.45-1.44-2.94-1.44-1.07,0-1.89.32-2.47.96-.58.64-.98,1.71-1.22,3.2s-.35,3.61-.35,6.34v5.25c.56-.94,1.45-1.67,2.69-2.21,1.24-.53,2.65-.8,4.23-.8,3.84,0,6.63,1.33,8.36,4,1.73,2.67,2.59,6.31,2.59,10.92,0,5.72-1.07,10.15-3.2,13.29-2.14,3.14-5.7,4.71-10.7,4.71s-8.26-1.54-10.54-4.61m13.71-4.9c.54-1.43.8-3.7.8-6.82,0-2.18-.06-3.86-.19-5.06-.13-1.19-.48-2.15-1.06-2.88-.57-.73-1.46-1.09-2.66-1.09-.9,0-1.7.24-2.4.71-.7.47-1.25,1.02-1.63,1.66v8.26c0,4.91,1.37,7.37,4.1,7.37,1.49,0,2.51-.72,3.04-2.15" fill="#fff"/>
  <path d="m194.02,207.73c1.06,0,1.92.86,1.92,1.91v21.85c0,1.06-.86,1.92-1.92,1.92h-22.03c-1.06,0-1.91-.86-1.91-1.92v-6.66l-14.38-1.58-72.49,1.61v-8.57l39.84.86v-12.28c-4.51-.36-8.92-1.25-13.09-2.69-7.18-2.47-15.2-9.57-21.97-11.68,3.69.84,12.78,2.25,19.25-2.21,8.28-5.72,9.62-6.44,14.77-7.27-11.11-.94-19.23-7.79-22.45-22.93-3.07-14.42-5.2-20.09-11.27-22.68,8.87-.86,21.82-.95,36.66,14.24,11.25,11.5,22.76,11.21,31.92,2.69,9.15-8.52,15.57-12.63,20.56-7.04,1.2,1.35,2.38,2.51,3.46,3.49,1.14-5.54,4.51-9.03,7.85-12.44,1.83-1.88,3.73-3.81,5.18-6.07l1.19.77c-1.53,2.37-3.48,4.36-5.36,6.29-3.43,3.5-6.75,6.93-7.66,12.51,2.67,2.23,4.56,3.25,4.56,3.25,0,0-2-.19-4.79.15.03,2.87.61,6.25,1.98,10.35-.48.05-.95.09-1.44.12-1.29-4.01-1.88-7.37-1.94-10.27-1.4.24-2.94.61-4.49,1.19-5.42,2.04-9.19,6.61-8.75,18.39.44,11.57-3.97,24.16-24.19,29.87-2.77.78-5.57,1.34-8.36,1.7v12.83l21.01.48,14.38-1.58v-6.67c0-1.05.86-1.91,1.91-1.91h22.03Zm-67.5-2.69v12.18l4.71.11v-12.42c-1.58.11-3.15.15-4.71.13Zm60.09-84.34s3.92,2.04,4.69,5.48c.77,3.43-1.88,6.96-1.88,6.96,0,0-3.91-2.04-4.69-5.48-.77-3.43,1.88-6.96,1.88-6.96Zm-4.32,20.13s-3.92-2.04-4.69-5.48c-.77-3.43,1.88-6.95,1.88-6.95,0,0,3.91,2.04,4.69,5.47.77,3.43-1.88,6.96-1.88,6.96Zm10.91-3.77s2.37-3.28,5.56-3.57c3.19-.28,5.99,2.54,5.99,2.54,0,0-2.36,3.29-5.55,3.57-3.19.28-6-2.54-6-2.54Zm4.59-15.1c2.6-2.63,7.18-2.23,7.18-2.23,0,0,.37,4.66-2.23,7.29-2.6,2.63-7.18,2.23-7.18,2.23,0,0-.37-4.66,2.23-7.3Zm-5.73,25.57c-3.18-.38-5.34-3.71-5.34-3.71,0,0,2.99-2.73,6.17-2.36,3.18.38,5.34,3.72,5.34,3.72,0,0-2.99,2.73-6.17,2.35Zm2.84,51.12c1.86,0,3.36,1.5,3.36,3.36s-1.51,3.36-3.36,3.36h-23.77c-1.86,0-3.37-1.51-3.37-3.36s1.51-3.36,3.37-3.36h23.77Zm0,37.06c1.86,0,3.36,1.5,3.36,3.36s-1.51,3.36-3.36,3.36h-23.77c-1.86,0-3.37-1.51-3.37-3.36s1.51-3.36,3.37-3.36h23.77Zm-106.9-45.23c-1.04-.24-1.65-.42-1.65-.42.54.1,1.09.25,1.65.42Zm-6.84,32.95c0,1.81-1.26,3.27-2.82,3.27h-1.69c-1.55,0-2.82-1.47-2.82-3.27v-5.92c0-1.81,1.26-3.27,2.82-3.27h1.69c1.55,0,2.82,1.46,2.82,3.27v5.92Z" fill="#fff" fill-rule="evenodd"/>
  <g>
    <path d="m87.06,43.46v-19.83h5.83c1.2,0,2.15.22,2.89.66.76.44,1.3,1.08,1.64,1.93.37.83.54,1.84.54,3.04,0,1.3-.22,2.33-.66,3.13-.44.78-1.05,1.35-1.86,1.71-.78.37-1.71.54-2.79.54h-1.96v8.81h-3.62Zm3.62-11.36h1.37c.66,0,1.15-.1,1.52-.27.37-.2.64-.49.76-.91.15-.42.22-.98.22-1.69s-.05-1.3-.17-1.74c-.1-.47-.32-.78-.69-1-.34-.22-.88-.32-1.64-.32h-1.37v5.92Z" fill="#fff"/>
    <path d="m99.41,43.46v-19.83h8.32v2.55h-4.7v5.7h3.7v2.52h-3.7v6.56h4.75v2.5h-8.37Z" fill="#fff"/>
    <path d="m108.34,43.46l3.97-19.83h3.87l3.97,19.83h-3.35l-.78-4.58h-3.45l-.81,4.58h-3.4Zm4.58-6.88h2.69l-1.35-8.32-1.35,8.32Z" fill="#fff"/>
    <path d="m126.79,43.73c-1.44,0-2.59-.29-3.43-.86-.81-.56-1.4-1.35-1.71-2.33-.32-1-.49-2.13-.49-3.43v-7.07c0-1.35.17-2.52.49-3.52.32-1,.91-1.76,1.71-2.3.83-.54,1.98-.81,3.43-.81s2.45.24,3.21.71c.78.47,1.35,1.13,1.66,1.98.32.86.49,1.86.49,3.01v1.66h-3.48v-1.71c0-.56-.02-1.05-.1-1.52-.05-.47-.2-.81-.47-1.08-.24-.27-.69-.42-1.3-.42s-1.08.15-1.37.44c-.27.27-.47.66-.54,1.15-.07.47-.12,1-.12,1.62v8.62c0,.71.05,1.32.17,1.79.12.47.32.81.61,1.05.32.22.73.34,1.25.34.61,0,1.03-.15,1.27-.42.27-.29.42-.69.49-1.15s.1-1,.1-1.59v-1.79h3.48v1.59c0,1.17-.15,2.23-.47,3.13-.32.91-.86,1.62-1.64,2.13-.76.51-1.86.76-3.26.76Z" fill="#fff"/>
    <path d="m134.13,43.46v-19.83h8.32v2.55h-4.7v5.7h3.7v2.52h-3.7v6.56h4.75v2.5h-8.37Z" fill="#fff"/>
    <path d="m144.11,46.79l-.34-1.22c.44-.12.81-.37,1.13-.71.32-.32.47-.78.47-1.4h-1.76v-3.3h3.26v3.01c0,1.05-.22,1.86-.69,2.45-.47.61-1.15,1-2.06,1.17Z" fill="#fff"/>
    <path d="m152.89,43.95v-2.55c.51,0,.95-.02,1.3-.1.34-.07.61-.17.78-.34.2-.17.34-.44.42-.76.07-.34.12-.78.12-1.3v-15.27h3.6v15.42c0,1.1-.12,2.03-.39,2.77-.27.71-.71,1.25-1.37,1.62-.64.34-1.54.51-2.72.51h-1.74Z" fill="#fff"/>
    <path d="m167.01,43.73c-1.47,0-2.62-.27-3.43-.81-.81-.54-1.37-1.3-1.69-2.3-.32-1-.47-2.18-.47-3.57v-13.41h3.52v13.83c0,.61.05,1.2.12,1.76.07.54.27.98.56,1.32.32.32.76.49,1.37.49s1.1-.17,1.37-.49c.29-.34.49-.78.56-1.32.1-.56.15-1.15.15-1.76v-13.83h3.5v13.41c0,1.4-.15,2.57-.47,3.57-.32,1-.88,1.76-1.69,2.3-.81.54-1.93.81-3.43.81Z" fill="#fff"/>
    <path d="m179.88,43.73c-1.2,0-2.18-.22-2.99-.69-.81-.47-1.4-1.15-1.81-2.06-.42-.91-.64-2.01-.69-3.3l3.11-.61c.02.76.12,1.44.27,2.03.17.59.39,1.05.71,1.37.32.32.76.47,1.27.47.59,0,1-.17,1.25-.51.24-.37.37-.81.37-1.35,0-.86-.2-1.57-.59-2.13-.39-.56-.91-1.1-1.57-1.66l-2.5-2.2c-.71-.61-1.27-1.27-1.69-2.01-.42-.76-.61-1.66-.61-2.77,0-1.57.47-2.77,1.37-3.62.91-.86,2.15-1.27,3.75-1.27.93,0,1.71.15,2.33.44.61.27,1.1.66,1.47,1.17.37.51.66,1.08.83,1.74.17.64.29,1.32.34,2.03l-3.08.54c-.02-.61-.1-1.17-.22-1.66-.1-.49-.29-.88-.56-1.15-.27-.27-.66-.42-1.17-.42s-.95.17-1.25.54c-.27.34-.42.78-.42,1.3,0,.66.15,1.22.42,1.66.27.42.69.86,1.2,1.32l2.47,2.18c.81.69,1.52,1.49,2.08,2.42.59.91.88,2.03.88,3.33,0,.95-.22,1.79-.64,2.52s-.98,1.32-1.74,1.74c-.73.42-1.59.61-2.59.61Z" fill="#fff"/>
    <path d="m188.42,43.46v-17.16h-3.16v-2.67h9.89v2.67h-3.11v17.16h-3.62Z" fill="#fff"/>
    <rect x="196.52" y="23.63" width="3.57" height="19.83" fill="#fff"/>
    <path d="m207.94,43.73c-1.44,0-2.59-.29-3.43-.86-.81-.56-1.4-1.35-1.71-2.33-.32-1-.49-2.13-.49-3.43v-7.07c0-1.35.17-2.52.49-3.52.32-1,.91-1.76,1.71-2.3.83-.54,1.98-.81,3.43-.81s2.45.24,3.21.71c.78.47,1.35,1.13,1.66,1.98.32.86.49,1.86.49,3.01v1.66h-3.48v-1.71c0-.56-.02-1.05-.1-1.52-.05-.47-.2-.81-.47-1.08-.24-.27-.69-.42-1.3-.42s-1.08.15-1.37.44c-.27.27-.47.66-.54,1.15-.07.47-.12,1-.12,1.62v8.62c0,.71.05,1.32.17,1.79.12.47.32.81.61,1.05.32.22.73.34,1.25.34.61,0,1.03-.15,1.27-.42.27-.29.42-.69.49-1.15s.1-1,.1-1.59v-1.79h3.48v1.59c0,1.17-.15,2.23-.47,3.13-.32.91-.86,1.62-1.64,2.13-.76.51-1.86.76-3.26.76Z" fill="#fff"/>
    <path d="m215.28,43.46v-19.83h8.32v2.55h-4.7v5.7h3.7v2.52h-3.7v6.56h4.75v2.5h-8.37Z" fill="#fff"/>
    <path d="m86.05,75.86l3.97-19.83h3.87l3.97,19.83h-3.35l-.78-4.58h-3.45l-.81,4.58h-3.4Zm4.58-6.88h2.69l-1.35-8.32-1.35,8.32Z" fill="#fff"/>
    <path d="m99.28,75.86v-19.83h2.52l4.82,11.31v-11.31h2.99v19.83h-2.4l-4.85-11.85v11.85h-3.08Z" fill="#fff"/>
    <path d="m112.07,75.86v-19.83h4.68c1.62,0,2.86.22,3.77.66s1.57,1.13,1.93,2.03c.39.91.59,2.08.59,3.48v7.25c0,1.44-.2,2.64-.59,3.6-.37.95-1,1.66-1.91,2.13-.88.47-2.11.69-3.65.69h-4.82Zm3.62-2.52h1.1c.83,0,1.42-.15,1.79-.44.37-.29.59-.71.66-1.27.07-.56.12-1.27.12-2.08v-7.59c0-.81-.05-1.44-.17-1.93-.12-.49-.34-.86-.71-1.08-.37-.22-.93-.34-1.74-.34h-1.05v14.74Z" fill="#fff"/>
    <path d="m135.55,76.13c-1.2,0-2.18-.22-2.99-.69-.81-.47-1.4-1.15-1.81-2.06-.42-.91-.64-2.01-.69-3.3l3.11-.61c.02.76.12,1.44.27,2.03.17.59.39,1.05.71,1.37.32.32.76.47,1.27.47.59,0,1-.17,1.25-.51.24-.37.37-.81.37-1.35,0-.86-.2-1.57-.59-2.13-.39-.56-.91-1.1-1.57-1.66l-2.5-2.2c-.71-.61-1.27-1.27-1.69-2.01-.42-.76-.61-1.66-.61-2.77,0-1.57.47-2.77,1.37-3.62.91-.86,2.15-1.27,3.75-1.27.93,0,1.71.15,2.33.44.61.27,1.1.66,1.47,1.17.37.51.66,1.08.83,1.74.17.64.29,1.32.34,2.03l-3.08.54c-.02-.61-.1-1.17-.22-1.66-.1-.49-.29-.88-.56-1.15-.27-.27-.66-.42-1.17-.42s-.95.17-1.25.54c-.27.34-.42.78-.42,1.3,0,.66.15,1.22.42,1.66.27.42.69.86,1.2,1.32l2.47,2.18c.81.69,1.52,1.49,2.08,2.42.59.91.88,2.03.88,3.33,0,.95-.22,1.79-.64,2.52s-.98,1.32-1.74,1.74c-.73.42-1.59.61-2.59.61Z" fill="#fff"/>
    <path d="m144.08,75.86v-17.16h-3.16v-2.67h9.89v2.67h-3.11v17.16h-3.62Z" fill="#fff"/>
    <path d="m152.07,75.86v-19.83h4.75c1.35,0,2.47.17,3.38.49.93.32,1.64.86,2.11,1.62.49.76.73,1.81.73,3.13,0,.81-.07,1.52-.22,2.15-.15.64-.39,1.17-.76,1.64-.34.44-.83.78-1.44,1.03l2.77,9.77h-3.62l-2.4-9.08h-1.66v9.08h-3.62Zm3.62-11.36h1.13c.71,0,1.25-.1,1.66-.29.42-.22.73-.54.91-.98.17-.47.27-1.03.27-1.74,0-1-.2-1.74-.56-2.23-.37-.51-1.05-.76-2.08-.76h-1.32v6Z" fill="#fff"/>
    <path d="m170.56,76.13c-1.4,0-2.52-.27-3.35-.78-.83-.51-1.42-1.27-1.79-2.25s-.54-2.13-.54-3.48v-7.42c0-1.35.17-2.47.54-3.43.37-.95.95-1.69,1.79-2.2.83-.51,1.96-.76,3.35-.76s2.57.24,3.38.76c.83.51,1.42,1.25,1.79,2.2.37.95.56,2.08.56,3.43v7.44c0,1.32-.2,2.47-.56,3.45-.37.95-.95,1.71-1.79,2.25-.81.51-1.93.78-3.38.78Zm0-2.67c.61,0,1.05-.12,1.32-.39.29-.27.49-.61.59-1.08.1-.47.15-.95.15-1.49v-9.13c0-.56-.05-1.05-.15-1.49s-.29-.78-.59-1.03c-.27-.27-.71-.39-1.32-.39-.56,0-1,.12-1.3.39-.29.24-.49.59-.59,1.03-.1.44-.15.93-.15,1.49v9.13c0,.54.05,1.03.12,1.49.1.47.29.81.59,1.08s.73.39,1.32.39Z" fill="#fff"/>
    <path d="m178.41,75.86v-19.83h2.52l4.82,11.31v-11.31h2.99v19.83h-2.4l-4.85-11.85v11.85h-3.08Z" fill="#fff"/>
    <path d="m196.17,76.13c-1.3,0-2.35-.27-3.11-.83-.76-.56-1.32-1.35-1.66-2.35-.32-1.03-.49-2.23-.49-3.62v-6.66c0-1.42.17-2.64.49-3.67.32-1.03.91-1.81,1.71-2.35.83-.56,1.98-.83,3.43-.83,1.35,0,2.42.22,3.23.69.81.47,1.37,1.13,1.71,1.98.37.86.54,1.88.54,3.11v1.03h-3.45v-1.13c0-.64-.05-1.17-.15-1.64-.07-.47-.27-.81-.54-1.03-.27-.24-.69-.37-1.3-.37s-1.1.15-1.4.47c-.27.32-.47.71-.54,1.22-.07.51-.1,1.05-.1,1.66v8.3c0,.69.05,1.27.17,1.79s.32.91.64,1.17c.32.27.76.39,1.32.39s1.03-.15,1.35-.44c.32-.29.51-.71.64-1.22.12-.51.2-1.15.2-1.86v-1.86h-2.13v-2.28h5.39v10.06h-2.33l-.27-1.96c-.27.66-.66,1.2-1.2,1.62-.51.42-1.25.61-2.15.61Z" fill="#fff"/>
    <rect x="87.15" y="88.44" width="3.57" height="19.83" fill="#fff"/>
    <path d="m93.22,108.27v-19.83h2.52l4.82,11.31v-11.31h2.99v19.83h-2.4l-4.85-11.85v11.85h-3.08Z" fill="#fff"/>
    <path d="m110.99,108.54c-1.2,0-2.18-.22-2.99-.69-.81-.47-1.4-1.15-1.81-2.06-.42-.91-.64-2.01-.69-3.3l3.11-.61c.02.76.12,1.44.27,2.03.17.59.39,1.05.71,1.37.32.32.76.47,1.27.47.59,0,1-.17,1.25-.51.24-.37.37-.81.37-1.35,0-.86-.2-1.57-.59-2.13-.39-.56-.91-1.1-1.57-1.66l-2.5-2.2c-.71-.61-1.27-1.27-1.69-2.01-.42-.76-.61-1.66-.61-2.77,0-1.57.47-2.77,1.37-3.62.91-.86,2.15-1.27,3.75-1.27.93,0,1.71.15,2.33.44.61.27,1.1.66,1.47,1.17.37.51.66,1.08.83,1.74.17.64.29,1.32.34,2.03l-3.08.54c-.02-.61-.1-1.17-.22-1.66-.1-.49-.29-.88-.56-1.15-.27-.27-.66-.42-1.17-.42s-.95.17-1.25.54c-.27.34-.42.78-.42,1.3,0,.66.15,1.22.42,1.66.27.42.69.86,1.2,1.32l2.47,2.18c.81.69,1.52,1.49,2.08,2.42.59.91.88,2.03.88,3.33,0,.95-.22,1.79-.64,2.52s-.98,1.32-1.74,1.74c-.73.42-1.59.61-2.59.61Z" fill="#fff"/>
    <path d="m119.5,108.27v-17.16h-3.16v-2.67h9.89v2.67h-3.11v17.16h-3.62Z" fill="#fff"/>
    <rect x="127.57" y="88.44" width="3.57" height="19.83" fill="#fff"/>
    <path d="m135.62,108.27v-17.16h-3.16v-2.67h9.89v2.67h-3.11v17.16h-3.62Z" fill="#fff"/>
    <path d="m149.03,108.54c-1.47,0-2.62-.27-3.43-.81-.81-.54-1.37-1.3-1.69-2.3-.32-1-.47-2.18-.47-3.57v-13.41h3.52v13.83c0,.61.05,1.2.12,1.76.07.54.27.98.56,1.32.32.32.76.49,1.37.49s1.1-.17,1.37-.49c.29-.34.49-.78.56-1.32.1-.56.15-1.15.15-1.76v-13.83h3.5v13.41c0,1.4-.15,2.57-.47,3.57-.32,1-.88,1.76-1.69,2.3-.81.54-1.93.81-3.43.81Z" fill="#fff"/>
    <path d="m158.86,108.27v-17.16h-3.16v-2.67h9.89v2.67h-3.11v17.16h-3.62Z" fill="#fff"/>
    <rect x="166.94" y="88.44" width="3.57" height="19.83" fill="#fff"/>
    <path d="m178.39,108.54c-1.4,0-2.52-.27-3.35-.78-.83-.51-1.42-1.27-1.79-2.25s-.54-2.13-.54-3.48v-7.42c0-1.35.17-2.47.54-3.43.37-.95.95-1.69,1.79-2.2.83-.51,1.96-.76,3.35-.76s2.57.24,3.38.76c.83.51,1.42,1.25,1.79,2.2.37.95.56,2.08.56,3.43v7.44c0,1.32-.2,2.47-.56,3.45-.37.95-.95,1.71-1.79,2.25-.81.51-1.93.78-3.38.78Zm0-2.67c.61,0,1.05-.12,1.32-.39.29-.27.49-.61.59-1.08.1-.47.15-.95.15-1.49v-9.13c0-.56-.05-1.05-.15-1.49s-.29-.78-.59-1.03c-.27-.27-.71-.39-1.32-.39-.56,0-1,.12-1.3.39-.29.24-.49.59-.59,1.03-.1.44-.15.93-.15,1.49v9.13c0,.54.05,1.03.12,1.49.1.47.29.81.59,1.08s.73.39,1.32.39Z" fill="#fff"/>
    <path d="m186.22,108.27v-19.83h2.52l4.82,11.31v-11.31h2.99v19.83h-2.4l-4.85-11.85v11.85h-3.08Z" fill="#fff"/>
    <path d="m203.98,108.54c-1.2,0-2.18-.22-2.99-.69-.81-.47-1.4-1.15-1.81-2.06-.42-.91-.64-2.01-.69-3.3l3.11-.61c.02.76.12,1.44.27,2.03.17.59.39,1.05.71,1.37.32.32.76.47,1.27.47.59,0,1-.17,1.25-.51.24-.37.37-.81.37-1.35,0-.86-.2-1.57-.59-2.13-.39-.56-.91-1.1-1.57-1.66l-2.5-2.2c-.71-.61-1.27-1.27-1.69-2.01-.42-.76-.61-1.66-.61-2.77,0-1.57.47-2.77,1.37-3.62.91-.86,2.15-1.27,3.75-1.27.93,0,1.71.15,2.33.44.61.27,1.1.66,1.47,1.17.37.51.66,1.08.83,1.74.17.64.29,1.32.34,2.03l-3.08.54c-.02-.61-.1-1.17-.22-1.66-.1-.49-.29-.88-.56-1.15-.27-.27-.66-.42-1.17-.42s-.95.17-1.25.54c-.27.34-.42.78-.42,1.3,0,.66.15,1.22.42,1.66.27.42.69.86,1.2,1.32l2.47,2.18c.81.69,1.52,1.49,2.08,2.42.59.91.88,2.03.88,3.33,0,.95-.22,1.79-.64,2.52s-.98,1.32-1.74,1.74c-.73.42-1.59.61-2.59.61Z" fill="#fff"/>
  </g>
</svg>