<?xml version="1.0" encoding="UTF-8"?>
<svg id="Layer_1" data-name="Layer 1" xmlns="http://www.w3.org/2000/svg" viewBox="0 0 275.42 275.42">
  <rect width="275.42" height="275.42" fill="#f99e27"/>
  <path d="m24,34.33c-.48.26-1.86.8-4.15,1.62-1.82.61-2.96,1.02-3.43,1.23v-7.46c1.47-.56,3.25-1.42,5.35-2.59,2.09-1.17,3.58-2.23,4.44-3.18h7.84v52.52h-10.05v-42.14Z" fill="#fff"/>
  <path d="m45.98,34.33c-.48.26-1.86.8-4.15,1.62-1.82.61-2.96,1.02-3.43,1.23v-7.46c1.47-.56,3.25-1.42,5.35-2.59,2.09-1.17,3.58-2.23,4.44-3.18h7.84v52.52h-10.05v-42.14Z" fill="#fff"/>
  <path d="m45.01,210.01c-.56,0-1.02-.46-1.02-1.02,0-.21.06-.41.17-.57l.31-.38,20.2-26.51.19-.22.12-.14c.18-.16.41-.26.67-.26.3,0,.57.13.75.33l.2.22,20.71,26.79.06.06c.16.18.27.42.27.68,0,.56-.46,1.02-1.02,1.02h-41.62Zm41.49,3.78c.56,0,1.02.46,1.02,1.02v32.63c0,.56-.46,1.02-1.02,1.02h-13.78v-20.53c0-.57-.46-1.02-1.02-1.02h-12.46c-.56,0-1.02.45-1.02,1.02v20.53h-13.42c-.56,0-1.02-.46-1.02-1.02v-32.63c0-.56.46-1.02,1.02-1.02h41.7Zm144.12-8.54c.56,0,1.01.43,1.01.98v41.68c0,.54-.45.98-1.01.98h-41.27c-.56,0-1.01-.44-1.01-.98v-41.68c0-.55.45-.98,1.01-.98h41.27Zm-3.74,13.36v-7.5c0-.54-.45-.98-1.01-.98h-12.33c-.56,0-1.01.44-1.01.98v7.5c0,.54.45.98,1.01.98h12.33c.56,0,1.01-.44,1.01-.98Zm-18.85,0v-7.5c0-.54-.45-.98-1.01-.98h-12.33c-.56,0-1.01.44-1.01.98v7.5c0,.54.45.98,1.01.98h12.33c.56,0,1.01-.44,1.01-.98Zm18.85,13.85v-7.49c0-.55-.45-.98-1.01-.98h-12.33c-.56,0-1.01.44-1.01.98v7.49c0,.55.45.98,1.01.98h12.33c.56,0,1.01-.44,1.01-.98Zm-18.85,0v-7.49c0-.55-.45-.98-1.01-.98h-12.33c-.56,0-1.01.44-1.01.98v7.49c0,.55.45.98,1.01.98h12.33c.56,0,1.01-.44,1.01-.98Zm-73.36-123.95c.54,0,.99.44.99.99v138.04c0,.54-.45.99-.99.99h-40.39c-.54,0-.99-.44-.99-.99V109.49c0-.55.45-.99.99-.99h40.39Zm-24.03,76.96v-10.31c0-.29-.24-.53-.53-.53h-9.25c-.29,0-.53.24-.53.53v10.31c0,.29.24.53.53.53h9.25c.29,0,.53-.24.53-.53Zm18.14-47.34v-10.31c0-.3-.24-.53-.53-.53h-9.25c-.3,0-.53.24-.53.53v10.31c0,.29.24.53.53.53h9.25c.3,0,.53-.24.53-.53Zm-18.14,94.67v-10.31c0-.29-.24-.53-.53-.53h-9.25c-.29,0-.53.24-.53.53v10.31c0,.29.24.53.53.53h9.25c.29,0,.53-.24.53-.53Zm18.14-47.33v-10.31c0-.29-.24-.53-.53-.53h-9.25c-.3,0-.53.24-.53.53v10.31c0,.29.24.53.53.53h9.25c.3,0,.53-.24.53-.53Zm0-23.67v-10.31c0-.29-.24-.52-.53-.52h-9.25c-.3,0-.53.23-.53.52v10.31c0,.3.24.53.53.53h9.25c.3,0,.53-.24.53-.53Zm-18.14,47.34v-10.3c0-.3-.24-.53-.53-.53h-9.25c-.29,0-.53.23-.53.53v10.3c0,.3.24.53.53.53h9.25c.29,0,.53-.23.53-.53Zm18.14,0v-10.3c0-.3-.24-.53-.53-.53h-9.25c-.3,0-.53.23-.53.53v10.3c0,.3.24.53.53.53h9.25c.3,0,.53-.23.53-.53Zm-18.14-71v-10.31c0-.3-.24-.53-.53-.53h-9.25c-.29,0-.53.24-.53.53v10.31c0,.29.24.53.53.53h9.25c.29,0,.53-.24.53-.53Zm18.14,94.67v-10.31c0-.29-.24-.53-.53-.53h-9.25c-.3,0-.53.24-.53.53v10.31c0,.29.24.53.53.53h9.25c.3,0,.53-.24.53-.53Zm-18.14-71.01v-10.31c0-.29-.24-.52-.53-.52h-9.25c-.29,0-.53.23-.53.52v10.31c0,.3.24.53.53.53h9.25c.29,0,.53-.24.53-.53Zm120.93,39.26c0,.46-.37.83-.83.83h-41.54c-.46,0-.83-.37-.83-.83v-8.31c0-.46.37-.83.83-.83h41.54c.46,0,.83.37.83.83v8.31Zm-48.12-66.48c.06.12.1.27.1.41v112.76c0,.54-.44.98-.99.98h-40.35c-.55,0-.99-.44-.99-.98v-61.88c0-.31.14-.58.34-.79l.18-.24,39.7-50.36.34-.43s.05-.03.07-.05c.17-.11.36-.19.58-.19.49,0,.88.33,1.01.77Zm-4.59,83.95v-7.54c0-.55-.45-.99-.99-.99h-12.03c-.55,0-.99.44-.99.99v7.54c0,.55.44.99.99.99h12.03c.54,0,.99-.44.99-.99Zm0-13.92v-7.54c0-.55-.45-.99-.99-.99h-12.03c-.55,0-.99.44-.99.99v7.54c0,.54.44.98.99.98h12.03c.54,0,.99-.44.99-.98Zm-18.37-13.91v-17.05c-.11-.52-.55-.92-1.1-.92-.36,0-.68.16-.89.42l-.29.35c-2.91,3.58-9.86,12.13-11.4,14.33-.04.05-.08.12-.11.16-.03.04-.07.09-.09.13-.04.06-.04.07-.06.12-.05.11-.07.24-.08.37v2.09c0,.54.44.99.99.99h12.03c.54,0,.99-.44.99-.99Zm18.37-13.94v-7.53c0-.55-.45-.99-.99-.99h-12.03c-.55,0-.99.44-.99.99v7.53c0,.55.44.99.99.99h12.03c.54,0,.99-.44.99-.99Zm-18.4,55.7v-7.54c0-.54-.44-.98-.98-.98h-12.04c-.55,0-.99.44-.99.98v7.54c0,.55.44.99.99.99h12.04c.54,0,.98-.44.98-.99Zm0-27.85v-7.54c0-.55-.44-.99-.98-.99h-12.04c-.55,0-.99.44-.99.99v7.54c0,.54.44.98.99.98h12.04c.54,0,.98-.44.98-.98Zm6.28-42.68c-.14.19-.22.43-.22.68,0,.61.49,1.11,1.1,1.14.02,0,.03,0,.05,0s.03,0,.05,0h9.92s.03,0,.05,0,.03,0,.05,0c.61-.03,1.1-.52,1.1-1.14v-12.74c-.11-.53-.55-.92-1.1-.92-.36,0-.68.16-.89.42l-.29.35c-2.23,2.74-6.81,8.37-9.53,11.86l-.28.36Zm-6.28,56.6v-7.54c0-.55-.44-.99-.98-.99h-12.04c-.55,0-.99.44-.99.99v7.54c0,.55.44.99.99.99h12.04c.54,0,.98-.44.98-.99Zm18.4-27.85v-7.54c0-.55-.45-.99-.99-.99h-12.03c-.55,0-.99.44-.99.99v7.54c0,.54.44.98.99.98h12.03c.54,0,.99-.44.99-.98Zm0,41.77v-7.54c0-.54-.45-.98-.99-.98h-12.03c-.55,0-.99.44-.99.98v7.54c0,.55.44.99.99.99h12.03c.54,0,.99-.44.99-.99Z" fill="#fff" fill-rule="evenodd"/>
  <g>
    <path d="m79.3,44.26c-1.21,0-2.21-.22-3.02-.69-.82-.47-1.41-1.16-1.83-2.08-.42-.92-.64-2.03-.69-3.34l3.15-.62c.02.77.12,1.46.27,2.06.17.59.4,1.07.72,1.39.32.32.77.47,1.29.47.59,0,1.02-.17,1.26-.52.25-.37.37-.82.37-1.36,0-.87-.2-1.59-.59-2.16-.4-.57-.92-1.11-1.59-1.68l-2.53-2.23c-.72-.62-1.29-1.29-1.71-2.03-.42-.77-.62-1.68-.62-2.8,0-1.59.47-2.8,1.39-3.67.92-.87,2.18-1.29,3.79-1.29.94,0,1.73.15,2.35.45.62.27,1.11.67,1.49,1.19.37.52.67,1.09.84,1.76.17.64.3,1.34.35,2.06l-3.12.55c-.02-.62-.1-1.19-.22-1.68-.1-.5-.3-.89-.57-1.16-.27-.27-.67-.42-1.19-.42s-.97.17-1.26.55c-.27.35-.42.79-.42,1.31,0,.67.15,1.24.42,1.68.27.42.69.87,1.21,1.34l2.5,2.21c.82.69,1.54,1.51,2.11,2.45.59.92.89,2.06.89,3.37,0,.97-.22,1.81-.64,2.55s-.99,1.34-1.76,1.76c-.74.42-1.61.62-2.63.62Z" fill="#fff"/>
    <path d="m90.98,44.26c-1.49,0-2.65-.27-3.47-.82-.82-.55-1.39-1.31-1.71-2.33-.32-1.02-.47-2.21-.47-3.62v-13.58h3.57v14c0,.62.05,1.21.12,1.78.07.55.27.99.57,1.34.32.32.77.5,1.39.5s1.11-.17,1.39-.5c.3-.35.5-.79.57-1.34.1-.57.15-1.16.15-1.78v-14h3.54v13.58c0,1.41-.15,2.6-.47,3.62-.32,1.02-.89,1.78-1.71,2.33-.82.55-1.96.82-3.47.82Z" fill="#fff"/>
    <path d="m103.55,44.26c-1.21,0-2.21-.22-3.02-.69-.82-.47-1.41-1.16-1.83-2.08-.42-.92-.64-2.03-.69-3.34l3.15-.62c.02.77.12,1.46.27,2.06.17.59.4,1.07.72,1.39.32.32.77.47,1.29.47.59,0,1.02-.17,1.26-.52.25-.37.37-.82.37-1.36,0-.87-.2-1.59-.59-2.16-.4-.57-.92-1.11-1.59-1.68l-2.53-2.23c-.72-.62-1.29-1.29-1.71-2.03-.42-.77-.62-1.68-.62-2.8,0-1.59.47-2.8,1.39-3.67.92-.87,2.18-1.29,3.79-1.29.94,0,1.73.15,2.35.45.62.27,1.11.67,1.49,1.19.37.52.67,1.09.84,1.76.17.64.3,1.34.35,2.06l-3.12.55c-.02-.62-.1-1.19-.22-1.68-.1-.5-.3-.89-.57-1.16-.27-.27-.67-.42-1.19-.42s-.97.17-1.26.55c-.27.35-.42.79-.42,1.31,0,.67.15,1.24.42,1.68.27.42.69.87,1.21,1.34l2.5,2.21c.82.69,1.54,1.51,2.11,2.45.59.92.89,2.06.89,3.37,0,.97-.22,1.81-.64,2.55s-.99,1.34-1.76,1.76c-.74.42-1.61.62-2.63.62Z" fill="#fff"/>
    <path d="m111.74,43.99v-17.37h-3.2v-2.7h10.01v2.7h-3.15v17.37h-3.67Z" fill="#fff"/>
    <path d="m117.35,43.99l4.01-20.07h3.91l4.01,20.07h-3.39l-.79-4.63h-3.49l-.82,4.63h-3.44Zm4.63-6.96h2.73l-1.36-8.42-1.36,8.42Z" fill="#fff"/>
    <rect x="130.39" y="23.92" width="3.62" height="20.07" fill="#fff"/>
    <path d="m136.1,43.99v-20.07h2.55l4.88,11.45v-11.45h3.02v20.07h-2.43l-4.91-11.99v11.99h-3.12Z" fill="#fff"/>
    <path d="m147.58,43.99l4.01-20.07h3.91l4.01,20.07h-3.39l-.79-4.63h-3.49l-.82,4.63h-3.44Zm4.63-6.96h2.73l-1.36-8.42-1.36,8.42Z" fill="#fff"/>
    <path d="m160.52,43.99v-20.07h4.93c.89,0,1.68.07,2.4.25.72.17,1.34.45,1.86.84.52.37.94.89,1.21,1.56s.42,1.49.42,2.5c0,.82-.12,1.51-.35,2.08s-.55,1.04-.97,1.39c-.42.32-.97.55-1.61.67.79.12,1.44.42,1.96.84.52.42.92.97,1.16,1.64.27.67.4,1.49.4,2.45s-.12,1.81-.37,2.55c-.22.72-.59,1.34-1.07,1.83-.47.47-1.04.84-1.76,1.09-.69.25-1.51.37-2.45.37h-5.77Zm3.67-2.58h1.39c1.11,0,1.86-.27,2.25-.79.4-.55.59-1.39.59-2.5,0-.82-.1-1.46-.3-1.96-.17-.52-.5-.89-.94-1.14-.42-.25-1.02-.37-1.73-.37h-1.26v6.76Zm0-9.29h1.24c.72,0,1.29-.1,1.68-.32.4-.22.67-.55.82-.99.17-.45.25-1.02.25-1.68,0-.72-.12-1.26-.37-1.64-.22-.4-.59-.67-1.07-.79-.47-.15-1.09-.22-1.83-.22h-.72v5.65Z" fill="#fff"/>
    <path d="m173.32,43.99v-20.07h3.67v17.54h4.86v2.53h-8.52Z" fill="#fff"/>
    <path d="m182.74,43.99v-20.07h8.42v2.58h-4.76v5.77h3.74v2.55h-3.74v6.64h4.81v2.53h-8.47Z" fill="#fff"/>
    <path d="m202.76,44.26c-1.46,0-2.63-.3-3.47-.87-.82-.57-1.41-1.36-1.73-2.35-.32-1.02-.5-2.16-.5-3.47v-7.16c0-1.36.17-2.55.5-3.57.32-1.02.92-1.78,1.73-2.33.84-.55,2.01-.82,3.47-.82s2.48.25,3.25.72c.79.47,1.36,1.14,1.68,2.01.32.87.5,1.88.5,3.05v1.68h-3.52v-1.73c0-.57-.02-1.07-.1-1.54-.05-.47-.2-.82-.47-1.09-.25-.27-.69-.42-1.31-.42s-1.09.15-1.39.45c-.27.27-.47.67-.55,1.16-.07.47-.12,1.02-.12,1.64v8.72c0,.72.05,1.34.17,1.81.12.47.32.82.62,1.07.32.22.74.35,1.26.35.62,0,1.04-.15,1.29-.42.27-.3.42-.69.5-1.16s.1-1.02.1-1.61v-1.81h3.52v1.61c0,1.19-.15,2.25-.47,3.17-.32.92-.87,1.64-1.66,2.16-.77.52-1.88.77-3.3.77Z" fill="#fff"/>
    <rect x="209.83" y="23.92" width="3.62" height="20.07" fill="#fff"/>
    <path d="m217.55,43.99v-17.37h-3.2v-2.7h10.01v2.7h-3.15v17.37h-3.67Z" fill="#fff"/>
    <rect x="225.29" y="23.92" width="3.62" height="20.07" fill="#fff"/>
    <path d="m231,43.99v-20.07h8.42v2.58h-4.76v5.77h3.74v2.55h-3.74v6.64h4.81v2.53h-8.47Z" fill="#fff"/>
    <path d="m245.65,44.26c-1.21,0-2.21-.22-3.02-.69-.82-.47-1.41-1.16-1.83-2.08-.42-.92-.64-2.03-.69-3.34l3.15-.62c.02.77.12,1.46.27,2.06.17.59.4,1.07.72,1.39.32.32.77.47,1.29.47.59,0,1.02-.17,1.26-.52.25-.37.37-.82.37-1.36,0-.87-.2-1.59-.59-2.16-.4-.57-.92-1.11-1.59-1.68l-2.53-2.23c-.72-.62-1.29-1.29-1.71-2.03-.42-.77-.62-1.68-.62-2.8,0-1.59.47-2.8,1.39-3.67.92-.87,2.18-1.29,3.79-1.29.94,0,1.73.15,2.35.45.62.27,1.11.67,1.49,1.19.37.52.67,1.09.84,1.76.17.64.3,1.34.35,2.06l-3.12.55c-.02-.62-.1-1.19-.22-1.68-.1-.5-.3-.89-.57-1.16-.27-.27-.67-.42-1.19-.42s-.97.17-1.26.55c-.27.35-.42.79-.42,1.31,0,.67.15,1.24.42,1.68.27.42.69.87,1.21,1.34l2.5,2.21c.82.69,1.54,1.51,2.11,2.45.59.92.89,2.06.89,3.37,0,.97-.22,1.81-.64,2.55s-.99,1.34-1.76,1.76c-.74.42-1.61.62-2.63.62Z" fill="#fff"/>
    <path d="m73.23,76.79l4.01-20.07h3.91l4.01,20.07h-3.39l-.79-4.63h-3.49l-.82,4.63h-3.44Zm4.63-6.96h2.73l-1.36-8.42-1.36,8.42Z" fill="#fff"/>
    <path d="m86.13,76.79v-20.07h2.55l4.88,11.45v-11.45h3.02v20.07h-2.43l-4.91-11.99v11.99h-3.12Z" fill="#fff"/>
    <path d="m98.58,76.79v-20.07h4.73c1.64,0,2.9.22,3.82.67s1.59,1.14,1.96,2.06c.4.92.59,2.11.59,3.52v7.33c0,1.46-.2,2.68-.59,3.64-.37.97-1.02,1.68-1.93,2.16-.89.47-2.13.69-3.69.69h-4.88Zm3.67-2.55h1.11c.84,0,1.44-.15,1.81-.45.37-.3.59-.72.67-1.29.07-.57.12-1.29.12-2.11v-7.68c0-.82-.05-1.46-.17-1.96-.12-.5-.35-.87-.72-1.09-.37-.22-.94-.35-1.76-.35h-1.07v14.92Z" fill="#fff"/>
    <path d="m121.69,77.06c-1.46,0-2.63-.3-3.47-.87-.82-.57-1.41-1.36-1.73-2.35-.32-1.02-.5-2.16-.5-3.47v-7.16c0-1.36.17-2.55.5-3.57.32-1.02.92-1.78,1.73-2.33.84-.55,2.01-.82,3.47-.82s2.48.25,3.25.72c.79.47,1.36,1.14,1.68,2.01.32.87.5,1.88.5,3.05v1.68h-3.52v-1.73c0-.57-.02-1.07-.1-1.54-.05-.47-.2-.82-.47-1.09-.25-.27-.69-.42-1.31-.42s-1.09.15-1.39.45c-.27.27-.47.67-.55,1.16-.07.47-.12,1.02-.12,1.64v8.72c0,.72.05,1.34.17,1.81.12.47.32.82.62,1.07.32.22.74.35,1.26.35.62,0,1.04-.15,1.29-.42.27-.3.42-.69.5-1.16s.1-1.02.1-1.61v-1.81h3.52v1.61c0,1.19-.15,2.25-.47,3.17-.32.92-.87,1.64-1.66,2.16-.77.52-1.88.77-3.3.77Z" fill="#fff"/>
    <path d="m134.07,77.06c-1.41,0-2.55-.27-3.39-.79-.84-.52-1.44-1.29-1.81-2.28s-.55-2.16-.55-3.52v-7.51c0-1.36.17-2.5.55-3.47.37-.97.97-1.71,1.81-2.23.84-.52,1.98-.77,3.39-.77s2.6.25,3.42.77c.84.52,1.44,1.26,1.81,2.23.37.97.57,2.11.57,3.47v7.53c0,1.34-.2,2.5-.57,3.49-.37.97-.97,1.73-1.81,2.28-.82.52-1.96.79-3.42.79Zm0-2.7c.62,0,1.07-.12,1.34-.4.3-.27.5-.62.59-1.09.1-.47.15-.97.15-1.51v-9.24c0-.57-.05-1.07-.15-1.51s-.3-.79-.59-1.04c-.27-.27-.72-.4-1.34-.4-.57,0-1.02.12-1.31.4-.3.25-.5.59-.59,1.04-.1.45-.15.94-.15,1.51v9.24c0,.55.05,1.04.12,1.51.1.47.3.82.59,1.09s.74.4,1.34.4Z" fill="#fff"/>
    <path d="m141.47,76.79l.35-20.07h3.79l2.85,13.9,2.97-13.9h3.67l.37,20.07h-2.73l-.3-13.95-2.85,13.95h-2.21l-2.9-14-.27,14h-2.75Z" fill="#fff"/>
    <path d="m157.34,76.79l.35-20.07h3.79l2.85,13.9,2.97-13.9h3.67l.37,20.07h-2.73l-.3-13.95-2.85,13.95h-2.21l-2.9-14-.27,14h-2.75Z" fill="#fff"/>
    <path d="m178.76,77.06c-1.49,0-2.65-.27-3.47-.82-.82-.55-1.39-1.31-1.71-2.33-.32-1.02-.47-2.21-.47-3.62v-13.58h3.57v14c0,.62.05,1.21.12,1.78.07.55.27.99.57,1.34.32.32.77.5,1.39.5s1.11-.17,1.39-.5c.3-.35.5-.79.57-1.34.1-.57.15-1.16.15-1.78v-14h3.54v13.58c0,1.41-.15,2.6-.47,3.62-.32,1.02-.89,1.78-1.71,2.33-.82.55-1.96.82-3.47.82Z" fill="#fff"/>
    <path d="m186.23,76.79v-20.07h2.55l4.88,11.45v-11.45h3.02v20.07h-2.43l-4.91-11.99v11.99h-3.12Z" fill="#fff"/>
    <rect x="198.78" y="56.72" width="3.62" height="20.07" fill="#fff"/>
    <path d="m206.44,76.79v-17.37h-3.2v-2.7h10.01v2.7h-3.15v17.37h-3.67Z" fill="#fff"/>
    <rect x="214.14" y="56.72" width="3.62" height="20.07" fill="#fff"/>
    <path d="m219.8,76.79v-20.07h8.42v2.58h-4.76v5.77h3.74v2.55h-3.74v6.64h4.81v2.53h-8.47Z" fill="#fff"/>
    <path d="m234.4,77.06c-1.21,0-2.21-.22-3.02-.69-.82-.47-1.41-1.16-1.83-2.08-.42-.92-.64-2.03-.69-3.34l3.15-.62c.02.77.12,1.46.27,2.06.17.59.4,1.07.72,1.39.32.32.77.47,1.29.47.59,0,1.02-.17,1.26-.52.25-.37.37-.82.37-1.36,0-.87-.2-1.59-.59-2.16-.4-.57-.92-1.11-1.59-1.68l-2.53-2.23c-.72-.62-1.29-1.29-1.71-2.03-.42-.77-.62-1.68-.62-2.8,0-1.59.47-2.8,1.39-3.67.92-.87,2.18-1.29,3.79-1.29.94,0,1.73.15,2.35.45.62.27,1.11.67,1.49,1.19.37.52.67,1.09.84,1.76.17.64.3,1.34.35,2.06l-3.12.55c-.02-.62-.1-1.19-.22-1.68-.1-.5-.3-.89-.57-1.16-.27-.27-.67-.42-1.19-.42s-.97.17-1.26.55c-.27.35-.42.79-.42,1.31,0,.67.15,1.24.42,1.68.27.42.69.87,1.21,1.34l2.5,2.21c.82.69,1.54,1.51,2.11,2.45.59.92.89,2.06.89,3.37,0,.97-.22,1.81-.64,2.55s-.99,1.34-1.76,1.76c-.74.42-1.61.62-2.63.62Z" fill="#fff"/>
  </g>
</svg>