<?xml version="1.0" encoding="UTF-8"?>
<svg id="Layer_1" data-name="Layer 1" xmlns="http://www.w3.org/2000/svg" viewBox="0 0 276.08 276.08">
  <rect width="276.08" height="276.08" fill="#d2a02a"/>
  <path d="m22.27,69.57l12.74-19.69.78-1.17c1.65-2.47,2.86-4.54,3.64-6.21.78-1.67,1.17-3.5,1.17-5.49,0-1.69-.33-2.98-.98-3.87-.65-.89-1.58-1.33-2.79-1.33-1.82,0-3.08.69-3.77,2.08-.69,1.39-1.04,3.29-1.04,5.72v2.41h-9.75v-2.6c0-4.94,1.16-8.85,3.48-11.73,2.32-2.88,5.95-4.32,10.89-4.32,4.55,0,8,1.2,10.37,3.61,2.36,2.4,3.54,5.82,3.54,10.23,0,1.99-.3,3.88-.91,5.66-.61,1.78-1.32,3.36-2.15,4.74-.82,1.39-2.1,3.36-3.84,5.92l-10.14,15.21h15.66v7.93h-26.91v-7.08Z" fill="#fff"/>
  <path d="m113.94,235.03c-26.29-8.1-46.11-29.09-50.57-54.77l-.09-.83c0-1.02.83-1.85,1.86-1.85h145.81c1.03,0,1.85.83,1.85,1.85,0,.09,0,.17-.03.26,0,.05-.01.1-.02.15-4.24,25.44-23.54,46.31-49.29,54.75v4.41s0,.01,0,.01h0c0,1.02-.81,1.83-1.8,1.85-.01,0-.03,0-.04,0-.01,0-.03,0-.04,0h-45.75s-.03,0-.05,0-.02,0-.04,0c-.97-.02-1.76-.79-1.8-1.75,0-.03-.01-.06-.01-.09,0-.03.01-.06.01-.09v-3.9Zm49.47-119.68c1.33-1.85,4.15-2.45,6.34-1.33,2.18,1.12,2.88,3.52,1.56,5.39-.17.25-11.36,16.59-.31,28.67,7.82,8.54,8.62,16.84,6.67,23.47h-9.62c1.96-4.49,2.56-11.13-4.32-18.66-15.01-16.4-.92-36.68-.32-37.54Zm-24.37,56.19c1.96-4.48,2.56-11.12-4.32-18.66-15.02-16.4-.92-36.68-.31-37.54,1.32-1.85,4.15-2.44,6.33-1.33,2.18,1.12,2.88,3.52,1.56,5.38-.18.27-11.36,16.59-.3,28.68,7.81,8.54,8.62,16.84,6.67,23.47h-9.63Zm-33.65-56.19c1.32-1.86,4.15-2.45,6.33-1.33,2.18,1.12,2.88,3.52,1.57,5.38-.18.26-11.37,16.6-.31,28.68,7.82,8.54,8.62,16.85,6.68,23.47h-9.63c1.96-4.48,2.55-11.12-4.33-18.66-15.01-16.4-.92-36.68-.31-37.54Z" fill="#fff" fill-rule="evenodd"/>
  <g>
    <path d="m72.01,44.1v-2.36l5.41-15.23h-5.12v-2.53h8.82v1.89l-5.61,15.7h5.64v2.53h-9.14Z" fill="#fff"/>
    <path d="m83.06,44.1v-20.12h8.44v2.58h-4.77v5.79h3.75v2.56h-3.75v6.66h4.82v2.53h-8.49Z" fill="#fff"/>
    <path d="m93.49,44.1v-20.12h4.82c1.37,0,2.51.17,3.43.5.94.32,1.66.87,2.14,1.64.5.77.75,1.84.75,3.18,0,.82-.07,1.54-.22,2.19-.15.65-.4,1.19-.77,1.66-.35.45-.84.79-1.47,1.04l2.81,9.91h-3.68l-2.43-9.21h-1.69v9.21h-3.68Zm3.68-11.52h1.14c.72,0,1.27-.1,1.69-.3.42-.22.75-.55.92-.99.17-.47.27-1.04.27-1.76,0-1.02-.2-1.76-.57-2.26-.37-.52-1.07-.77-2.11-.77h-1.34v6.09Z" fill="#fff"/>
    <path d="m112.62,44.37c-1.42,0-2.56-.27-3.4-.79-.84-.52-1.44-1.29-1.81-2.28s-.55-2.16-.55-3.53v-7.53c0-1.37.17-2.51.55-3.48.37-.97.97-1.71,1.81-2.24.84-.52,1.99-.77,3.4-.77s2.61.25,3.43.77c.84.52,1.44,1.27,1.81,2.24.37.97.57,2.11.57,3.48v7.55c0,1.34-.2,2.51-.57,3.5-.37.97-.97,1.74-1.81,2.28-.82.52-1.96.79-3.43.79Zm0-2.71c.62,0,1.07-.12,1.34-.4.3-.27.5-.62.6-1.09.1-.47.15-.97.15-1.52v-9.26c0-.57-.05-1.07-.15-1.52s-.3-.79-.6-1.04c-.27-.27-.72-.4-1.34-.4-.57,0-1.02.12-1.32.4-.3.25-.5.6-.6,1.04-.1.45-.15.94-.15,1.52v9.26c0,.55.05,1.04.12,1.52.1.47.3.82.6,1.09s.75.4,1.34.4Z" fill="#fff"/>
    <path d="m72.76,76.98v-20.12h3.65v8.42h4.12v-8.42h3.65v20.12h-3.65v-9.09h-4.12v9.09h-3.65Z" fill="#fff"/>
    <path d="m92.57,77.25c-1.49,0-2.66-.27-3.48-.82-.82-.55-1.39-1.32-1.71-2.33-.32-1.02-.47-2.21-.47-3.63v-13.61h3.58v14.03c0,.62.05,1.22.12,1.79.07.55.27.99.57,1.34.32.32.77.5,1.39.5s1.12-.17,1.39-.5c.3-.35.5-.79.57-1.34.1-.57.15-1.17.15-1.79v-14.03h3.55v13.61c0,1.42-.15,2.61-.47,3.63-.32,1.02-.89,1.79-1.71,2.33-.82.55-1.96.82-3.48.82Z" fill="#fff"/>
    <path d="m100.92,76.98v-20.12h2.56l4.89,11.47v-11.47h3.03v20.12h-2.43l-4.92-12.02v12.02h-3.13Z" fill="#fff"/>
    <path d="m119.3,77.25c-1.32,0-2.38-.27-3.15-.84-.77-.57-1.34-1.37-1.69-2.38-.32-1.04-.5-2.26-.5-3.68v-6.76c0-1.44.17-2.68.5-3.73.32-1.04.92-1.84,1.74-2.38.84-.57,2.01-.84,3.48-.84,1.37,0,2.46.22,3.28.7.82.47,1.39,1.14,1.74,2.01.37.87.55,1.91.55,3.15v1.04h-3.5v-1.14c0-.65-.05-1.19-.15-1.66-.07-.47-.27-.82-.55-1.04-.27-.25-.7-.37-1.32-.37s-1.12.15-1.42.47c-.27.32-.47.72-.55,1.24-.07.52-.1,1.07-.1,1.69v8.42c0,.7.05,1.29.17,1.81s.32.92.65,1.19c.32.27.77.4,1.34.4s1.04-.15,1.37-.45c.32-.3.52-.72.65-1.24.12-.52.2-1.17.2-1.89v-1.89h-2.16v-2.31h5.46v10.21h-2.36l-.27-1.99c-.27.67-.67,1.22-1.22,1.64-.52.42-1.27.62-2.19.62Z" fill="#fff"/>
    <path d="m127.94,76.98v-20.12h8.44v2.58h-4.77v5.79h3.75v2.56h-3.75v6.66h4.82v2.53h-8.49Z" fill="#fff"/>
    <path d="m138.37,76.98v-20.12h4.82c1.37,0,2.51.17,3.43.5.94.32,1.66.87,2.14,1.64.5.77.75,1.84.75,3.18,0,.82-.07,1.54-.22,2.19-.15.65-.4,1.19-.77,1.66-.35.45-.84.79-1.47,1.04l2.81,9.91h-3.68l-2.43-9.21h-1.69v9.21h-3.68Zm3.68-11.52h1.14c.72,0,1.27-.1,1.69-.3.42-.22.75-.55.92-.99.17-.47.27-1.04.27-1.76,0-1.02-.2-1.76-.57-2.26-.37-.52-1.07-.77-2.11-.77h-1.34v6.09Z" fill="#fff"/>
  </g>
</svg>