<?xml version="1.0" encoding="UTF-8"?>
<svg id="Layer_1" data-name="Layer 1" xmlns="http://www.w3.org/2000/svg" viewBox="0 0 308.7 34.6">
  <defs>
    <style>
      .cls-1 {
        fill: #dd1768;
      }

      .cls-2 {
        fill: #a21c44;
      }

      .cls-3 {
        fill: #1c97d4;
      }

      .cls-4 {
        fill: #ef402c;
      }

      .cls-5 {
        fill: #e4253c;
      }

      .cls-6 {
        fill: #f99d29;
      }

      .cls-7 {
        fill: #fac315;
      }

      .cls-8 {
        fill: #c5202e;
      }

      .cls-9 {
        fill: #18496b;
      }

      .cls-10 {
        fill: #0b9eda;
      }

      .cls-11 {
        fill: #f26a2c;
      }

      .cls-12 {
        fill: #dea93a;
      }

      .cls-13 {
        fill: #bf8b2c;
      }

      .cls-14 {
        fill: #29bee2;
      }

      .cls-15 {
        fill: #01699e;
      }

      .cls-16 {
        fill: #5cba47;
      }

      .cls-17 {
        fill: #4ca046;
      }

      .cls-18 {
        fill: #407f44;
      }
    </style>
  </defs>
  <path class="cls-10" d="m200.56,28.36c-1.14,1.37-2.76,2.43-4.85,3.18-2.09.75-4.4,1.13-6.94,1.13-2.67,0-5.01-.58-7.02-1.75-2.01-1.16-3.56-2.85-4.66-5.07-1.09-2.22-1.65-4.82-1.68-7.81v-2.1c0-3.08.52-5.74,1.56-7.99,1.04-2.25,2.53-3.97,4.49-5.16,1.95-1.19,4.24-1.79,6.87-1.79,3.65,0,6.51.87,8.57,2.61,2.06,1.74,3.28,4.28,3.66,7.61h-6.18c-.28-1.76-.91-3.06-1.87-3.87-.97-.82-2.3-1.23-3.99-1.23-2.16,0-3.8.81-4.93,2.43-1.13,1.62-1.7,4.04-1.72,7.24v1.97c0,3.23.61,5.67,1.84,7.32s3.03,2.48,5.4,2.48,4.08-.51,5.1-1.52v-5.31s-5.78,0-5.78,0v-4.68s12.13,0,12.13,0v12.3Z"/>
  <path class="cls-10" d="m243.59,20.76h7.7s-3.87-11.53-3.87-11.53l-3.83,11.53Zm9.42,5.14h-11.13s-2.12,6.35-2.12,6.35h-6.75s11.47-30.82,11.47-30.82h5.88s11.53,30.82,11.53,30.82h-6.75s-2.14-6.35-2.14-6.35Z"/>
  <path class="cls-10" d="m270.18,27.16h13.48v5.1h-19.83s0-30.82,0-30.82h6.35s0,25.72,0,25.72Z"/>
  <path class="cls-16" d="m210.92,12.7c.39-.66.86-1.27,1.4-1.8l-4.6-5.04c-1.16,1.11-2.14,2.39-2.92,3.8l6.12,3.05Z"/>
  <path class="cls-12" d="m222.19,9.14c.7.32,1.34.73,1.93,1.21l4.61-5.03c-1.21-1.05-2.59-1.91-4.09-2.55l-2.45,6.38Z"/>
  <path class="cls-8" d="m232.75,10.66l-6.11,3.05c.29.68.5,1.4.61,2.16l6.8-.64c-.2-1.61-.65-3.14-1.3-4.56"/>
  <path class="cls-17" d="m226.2,12.82l6.11-3.05c-.76-1.41-1.72-2.68-2.86-3.79l-4.61,5.03c.52.54.98,1.15,1.36,1.8"/>
  <path class="cls-18" d="m209.71,17.16c0-.14,0-.27.01-.41l-6.8-.61c-.02.34-.03.68-.03,1.02,0,1.3.16,2.57.46,3.78l6.57-1.88c-.13-.61-.21-1.25-.21-1.9"/>
  <path class="cls-7" d="m225.34,22.75c-.48.59-1.04,1.11-1.66,1.56l3.59,5.81c1.33-.9,2.52-2,3.51-3.26l-5.45-4.11Z"/>
  <path class="cls-4" d="m227.34,17.16c0,.64-.07,1.27-.2,1.88l6.57,1.89c.3-1.21.46-2.47.46-3.76,0-.32-.01-.64-.03-.96l-6.8.64c0,.11,0,.21,0,.32"/>
  <path class="cls-6" d="m211.81,22.88l-5.43,4.13c1.01,1.24,2.21,2.33,3.55,3.22l3.59-5.81c-.63-.44-1.21-.96-1.7-1.54"/>
  <path class="cls-3" d="m209.81,15.77c.12-.77.34-1.5.65-2.19l-6.11-3.04c-.68,1.44-1.14,2.99-1.35,4.62l6.8.61Z"/>
  <path class="cls-2" d="m226.44,30.65l-3.58-5.8c-.65.37-1.35.66-2.09.85l1.27,6.71c1.57-.36,3.06-.96,4.41-1.76"/>
  <path class="cls-14" d="m226.88,19.99c-.24.7-.56,1.36-.95,1.97l5.45,4.11c.89-1.27,1.59-2.68,2.06-4.19l-6.56-1.89Z"/>
  <path class="cls-11" d="m219.8,25.89c-.41.06-.84.09-1.27.09-.35,0-.69-.02-1.03-.06l-1.26,6.71c.75.11,1.51.17,2.29.17.86,0,1.71-.07,2.54-.21l-1.26-6.71Z"/>
  <path class="cls-5" d="m219.09,8.36c.76.05,1.49.19,2.18.42l2.45-6.37c-1.46-.51-3.02-.82-4.64-.88v6.83Z"/>
  <path class="cls-1" d="m216.53,25.75c-.76-.18-1.49-.46-2.17-.82l-3.59,5.81c1.38.79,2.89,1.38,4.49,1.72l1.26-6.71Z"/>
  <path class="cls-9" d="m215.87,8.75c.71-.22,1.45-.36,2.23-.4V1.52c-1.64.04-3.22.34-4.7.86l2.47,6.37Z"/>
  <path class="cls-13" d="m211.22,22.09c-.43-.64-.79-1.34-1.04-2.09l-6.56,1.88c.5,1.56,1.23,3.02,2.17,4.33l5.43-4.13Z"/>
  <path class="cls-15" d="m213.06,10.24c.58-.46,1.21-.84,1.89-1.14l-2.47-6.37c-1.47.62-2.82,1.45-4.03,2.47l4.6,5.04Z"/>
  <path class="cls-10" d="m55.25,11.4c0-.46-.16-.82-.49-1.08-.33-.26-.9-.52-1.72-.8-.82-.27-1.49-.54-2.01-.8-1.7-.83-2.54-1.98-2.54-3.43,0-.73.21-1.36.63-1.92.42-.55,1.02-.99,1.79-1.3.77-.31,1.64-.46,2.61-.46s1.78.17,2.53.5c.75.34,1.33.81,1.74,1.43.41.62.62,1.33.62,2.13h-3.15c0-.53-.16-.95-.49-1.24-.33-.29-.77-.44-1.33-.44s-1.01.12-1.33.37c-.33.25-.49.56-.49.95,0,.34.18.64.54.91.36.27.99.55,1.9.84.9.29,1.65.6,2.23.94,1.41.81,2.12,1.94,2.12,3.37,0,1.14-.43,2.04-1.29,2.7-.86.65-2.05.98-3.55.98-1.06,0-2.02-.19-2.88-.57-.86-.38-1.51-.9-1.94-1.56-.43-.66-.65-1.42-.65-2.29h3.16c0,.7.18,1.22.54,1.55.36.33.95.5,1.77.5.52,0,.93-.11,1.24-.34.3-.22.45-.54.45-.95"/>
  <path class="cls-10" d="m70.47,1.8v8.57c0,.97-.21,1.81-.62,2.52-.41.71-1.01,1.25-1.78,1.62-.77.37-1.69.56-2.74.56-1.59,0-2.85-.41-3.77-1.24-.92-.83-1.38-1.96-1.4-3.4V1.8h3.17v8.69c.04,1.43.7,2.15,2,2.15.65,0,1.15-.18,1.48-.54.34-.36.5-.94.5-1.75V1.8h3.15Z"/>
  <path class="cls-10" d="m79.37,11.4c0-.46-.16-.82-.49-1.08-.33-.26-.9-.52-1.72-.8-.82-.27-1.49-.54-2.01-.8-1.7-.83-2.54-1.98-2.54-3.43,0-.73.21-1.36.63-1.92.42-.55,1.02-.99,1.79-1.3.77-.31,1.64-.46,2.61-.46s1.78.17,2.53.5c.75.34,1.33.81,1.74,1.43.41.62.62,1.33.62,2.13h-3.15c0-.53-.16-.95-.49-1.24-.33-.29-.77-.44-1.33-.44s-1.01.12-1.33.37c-.33.25-.49.56-.49.95,0,.34.18.64.54.91.36.27.99.55,1.9.84.9.29,1.65.6,2.23.94,1.41.81,2.12,1.94,2.12,3.37,0,1.14-.43,2.04-1.29,2.7-.86.65-2.05.98-3.55.98-1.06,0-2.02-.19-2.88-.57-.86-.38-1.51-.9-1.94-1.56-.43-.66-.65-1.42-.65-2.29h3.16c0,.7.18,1.22.54,1.55.36.33.95.5,1.77.5.52,0,.93-.11,1.24-.34.3-.22.45-.54.45-.95"/>
  <path class="cls-10" d="m94.6,4.23h-3.93v10.65h-3.15V4.23h-3.86V1.8h10.94v2.44Z"/>
  <path class="cls-10" d="m98.9,10h2.81l-1.41-4.54-1.4,4.54Zm3.57,2.44h-4.32l-.75,2.44h-3.37l4.8-13.09h2.97l4.84,13.09h-3.39l-.76-2.44Z"/>
  <rect class="cls-10" x="107.98" y="1.8" width="3.15" height="13.09"/>
  <path class="cls-10" d="m124.43,14.88h-3.14l-4.64-8.14v8.14h-3.15V1.8h3.15l4.63,8.14V1.8h3.15v13.09Z"/>
  <path class="cls-10" d="m130.63,10h2.81l-1.41-4.54-1.4,4.54Zm3.57,2.44h-4.32l-.75,2.44h-3.37l4.8-13.09h2.97l4.84,13.09h-3.39l-.76-2.44Z"/>
  <path class="cls-10" d="m142.65,9.32v3.14h2.07c.57,0,1.01-.13,1.31-.39.31-.26.46-.63.46-1.1,0-1.09-.54-1.64-1.63-1.64h-2.21Zm0-2.07h1.64c.69,0,1.18-.13,1.47-.38.29-.25.44-.61.44-1.09,0-.55-.16-.95-.48-1.19-.32-.24-.83-.37-1.54-.37h-1.55v3.03Zm-3.15,7.63V1.8h4.7c1.68,0,2.96.31,3.84.93.88.62,1.32,1.51,1.32,2.69,0,.68-.16,1.26-.47,1.73-.31.48-.77.83-1.37,1.06.68.18,1.21.52,1.57,1.01.37.49.55,1.09.55,1.8,0,1.28-.41,2.25-1.22,2.89-.81.64-2.01.97-3.61.98h-5.31Z"/>
  <path class="cls-10" d="m154.71,12.46h5.49v2.43h-8.65V1.8h3.15v10.66Z"/>
  <path class="cls-10" d="m169.83,9.33h-4.96v3.13h5.86v2.43h-9.02V1.8h9.03v2.44h-5.88v2.76h4.96v2.34Z"/>
  <path class="cls-10" d="m50.94,22.35v7.88h1.05c.87,0,1.53-.31,2-.93.46-.62.7-1.53.7-2.75v-.54c0-1.21-.23-2.12-.7-2.74-.46-.61-1.14-.92-2.03-.92h-1.02Zm-3.02,10.2v-12.54h4.04c1.11,0,2.1.25,2.99.75.88.5,1.57,1.21,2.07,2.13.5.92.75,1.94.75,3.08v.58c0,1.15-.24,2.18-.73,3.09-.48.91-1.17,1.62-2.05,2.13-.88.51-1.86.77-2.95.78h-4.12Z"/>
  <path class="cls-10" d="m67.1,27.23h-4.75v3h5.61v2.32h-8.63v-12.54h8.65v2.33h-5.63v2.64h4.75v2.24Z"/>
  <path class="cls-10" d="m74.83,29.15l2.5-9.13h3.37l-4.22,12.54h-3.31l-4.18-12.54h3.35l2.49,9.13Z"/>
  <path class="cls-10" d="m89.39,27.23h-4.75v3h5.61v2.32h-8.63v-12.54h8.65v2.33h-5.63v2.64h4.75v2.24Z"/>
  <path class="cls-10" d="m94.5,30.23h5.26v2.32h-8.28v-12.54h3.02v10.21Z"/>
  <path class="cls-10" d="m107.68,26.02c0-1.25-.21-2.19-.62-2.84-.42-.65-1.01-.97-1.79-.97-1.52,0-2.32,1.14-2.4,3.41v.92c0,1.23.19,2.17.6,2.83.41.66,1.01.99,1.82.99s1.35-.32,1.76-.97c.41-.65.62-1.58.63-2.8v-.58Zm3.07.52c0,1.22-.23,2.3-.68,3.25s-1.1,1.67-1.93,2.17c-.84.51-1.79.76-2.85.76s-2.01-.25-2.84-.74c-.83-.49-1.47-1.19-1.93-2.1-.46-.91-.7-1.96-.73-3.14v-.71c0-1.23.23-2.31.68-3.25s1.1-1.66,1.94-2.17c.84-.51,1.8-.77,2.87-.77s2.01.25,2.84.76c.83.5,1.48,1.22,1.94,2.16.46.93.7,2,.7,3.21v.58Z"/>
  <path class="cls-10" d="m115.33,25.97h1.98c.58,0,1.03-.15,1.34-.44.31-.29.46-.71.46-1.24,0-.58-.16-1.05-.47-1.4-.32-.35-.75-.53-1.29-.53h-2.01v3.62Zm0,2.33v4.25h-3.02v-12.54h5c.96,0,1.81.18,2.54.53.74.35,1.31.86,1.71,1.51s.61,1.39.61,2.22c0,1.22-.44,2.2-1.31,2.93-.88.73-2.08,1.1-3.6,1.1h-1.93Z"/>
  <path class="cls-10" d="m127.54,20.02l2.8,8.72,2.79-8.72h3.98v12.54h-3.03v-2.93l.29-5.99-3.03,8.92h-2l-3.04-8.93.29,6v2.93h-3.02v-12.54h3.97Z"/>
  <path class="cls-10" d="m146.52,27.23h-4.75v3h5.61v2.32h-8.63v-12.54h8.65v2.33h-5.63v2.64h4.75v2.24Z"/>
  <path class="cls-10" d="m158.98,32.56h-3l-4.44-7.8v7.8h-3.02v-12.54h3.02l4.43,7.8v-7.8h3.01v12.54Z"/>
  <path class="cls-10" d="m170.65,22.35h-3.76v10.2h-3.02v-10.2h-3.69v-2.33h10.48v2.33Z"/>
  <path class="cls-10" d="m6.9,14.13h2.21c.08-2.97,1.28-5.67,3.19-7.68l-1.57-1.57c-2.4,2.51-3.75,5.77-3.83,9.25m4.26-9.69l1.57,1.57c2.01-1.91,4.71-3.11,7.68-3.19V.62c-3.48.08-6.74,1.43-9.25,3.83m9.56,7.48c-.26,0-.51.04-.75.11-.03.04-.06.06-.04.09.06.09.25-.1.27.07.02.12-.21.03-.18.12.02.07.17.04.17.14,0,.09-.09.27-.17.32-.1.06-.63.13-.68.26-.04.11-.09.2-.17.29-.09.1-.52.35-.52.41,0,.15.2-.04.26-.1.09-.1.22-.1.35-.17.19-.11.26.27.06.28-.13,0-.23.36-.43.29-.05-.02-.19-.1-.22-.02-.03.1.29.11.4.18.26.17-.2.16-.27.21-.07.05-.04.15.06.11.1-.04.23-.14.29.02.08.22-.36,1.02-.49.94-.07-.05-.14.02-.21.05.09.18.2.35.33.5.09-.14.22-.35.28-.35.08,0,.06-.07.09-.12.04-.07.14,0,.14-.09,0-.1.25-.23.28-.37.01-.08-.08-.15-.04-.21.05-.08.08-.09.13-.1.05-.02.16.1.2.05.04-.05.21-.01.34.07.06.04.18,0,.25.1.1.14,0,.15.01.18.02.03.06-.02.09,0,.06.05-.26.24-.22.34.04.1-.27.59-.35.67-.11.1-.3-.01-.37,0-.08.02-.1.09-.22.06-.09-.02-.21.02-.31.06.44.39,1.02.63,1.66.63.14,0,.27-.01.4-.03.08-.1.12-.23.13-.37,0-.07,0-.16.04-.23.03-.05.24-.31.32-.3.07,0,.12.07.23.03.2-.06.33,0,.33.08,0,.12-.25.09-.24.15,0,.05.19.12.25.05.11-.13.1-.3.07-.33-.08-.1-.08-.14.04-.1.07.02.07-.26.14-.37.09-.15-.17-.04-.28-.03-.1.02-.19-.21-.19-.28,0-.06.2.2.3.2.11,0,.25-.13.25-.22,0-.1-.22-.11-.25-.23-.02-.06.18,0,.16-.06-.01-.06.02-.19-.1-.24-.12-.05-.24-.45-.33-.47-.09-.02-.16.1-.21.14-.05.04-.14-.03-.09-.07.06-.06.21-.19.24-.29.05-.17.27,0,.23-.22-.04-.25-.26-.2-.16-.33.1-.12.03-.32-.18-.28-.1.02-.2-.14-.21-.27,0-.07-.22-.06-.21-.14.02-.16-.22-.18-.37-.17-.15.01-.43-.22-.46-.27-.03-.06-.24.05-.17-.17.07-.21.27.04.35-.02.09-.07.06-.13.05-.18-.02,0-.03,0-.05,0m.31-.6c.21.02.42.06.62.13.05-.13.18-.19.29-.27.13-.09.22-.18.2.05-.02.17-.09.27-.17.33.22.09.42.21.61.35.04.03.08.06.12.1l.21-.21s0-.02,0-.02c0-.12.18-.26.38-.35l.69-.69s-.03,0-.05,0c-.09-.01-.22.18-.31.13-.1-.06.3-.42.49-.35.02,0,.05.02.08.03l.09-.09c-.87-.78-2-1.28-3.24-1.35v2.22Zm0-2.83c1.41.07,2.69.64,3.68,1.53l1.56-1.56c-1.39-1.29-3.22-2.1-5.24-2.18v2.21Zm0-2.83c1.88.06,3.6.72,5,1.79-.16-.21-.32-.43-.39-.51-.14-.14-.64-.32-.59-.4.05-.08.5.28.58.21.1-.08-.23-.49-.2-.51.03-.02.41.35.6.68.08.12.29.06.45.17.14.1.15.26.27.36.02.02.27.16.13.15-.04,0-.11-.1-.16-.05-.03.03.02.18.11.35l.73-.74c-.11-.22-.32-.5-.46-.54-.15-.04-.24.09-.35.18-.1.09-.23.12-.25.06-.02-.07.02-.23.01-.29-.01-.08-.08-.15-.1-.23-.05-.19.03-.41-.09-.53-.13-.14-.21-.35-.31-.51-.11-.18-.31-.45-.32-.68-1.43-.72-3.01-1.13-4.65-1.17v2.21Zm0-2.83c1.85.05,3.62.52,5.21,1.38.15-.02.29-.04.39-.09.2-.09.58.12.77.23.17.1.3.24.49.35.19.11.5.42.57.73.07.31.27.29.17.42-.05.06.03.09.12.14l1.54-1.54c-2.51-2.4-5.77-3.75-9.25-3.83v2.21Zm9.69,2.05l-1.64,1.64c.15.26.43.59.83,1,.16.17.34.33.48.48.14.14,1.03,1.25.86,1.41-.01.01-.03.02-.04.03.69,1.46,1.08,3.07,1.12,4.69h2.21c-.08-3.48-1.43-6.74-3.83-9.25m3.83,9.87h-2.21c-.08,2.97-1.28,5.67-3.19,7.68l1.57,1.57c2.4-2.51,3.75-5.77,3.83-9.25m-10.53,4.47c0,.11-.11.02-.14.06-.03.04.87.46,1.01.48.1.02.28.09.61.02.22-.04.28.06.38.05.15,0,.24-.2.33-.32.22-.32.18-.36.24-.41.08-.06.3.43.27.74,0,.05-.01.1-.02.14l.02.02c1.29-1.39,2.1-3.22,2.18-5.24h-1.68c.06.1.16.22.26.44.08.17.14.45.28.46.23.02.47.21.47.37.01.33-1.03.42-1.16.37-.11-.04-.19-.04-.2.14,0,.2-.37.21-.52.33-.16.14-.18.39-.29.56-.07.1-.45.47-.55.54-.25.17-.72.18-.5.3.15.08.5.11.46.03-.05-.09.03-.1.09-.03.05.06.21-.06.21-.16,0-.1-.02-.26.07-.27.15,0,.31-.17.38-.16.08.02.2.2.11.78-.08.57-.36.97-.47,1.15-.12.19-.24.05-.39-.04-.2-.1-.5-.1-.71-.17-.11-.04-.72-.27-.72-.18m.81-8.21c-.07,0-.14-.02-.19-.04l-.52.52c.1.03.21,0,.33.05.14.06.07-.38.28-.34.21.04.27.18.09.25-.14.05.04.17-.14.22-.16.05.13.19.13.25,0,.09-.21.12.1.21.32.1,0-.27.05-.32.06-.06.23.1.27.03.02-.03.05-.07.09-.12-.15-.25-.32-.48-.5-.71m1.9-2.12l-1.56,1.56c.27.3.51.62.71.97.18.03.43.1.6.31.11.15.44.44.39.57-.03.08.04.18.11.23.12.08.2.08.26,0,.12-.15.13-.35.29-.47.19-.15.57.29.57.37,0,.08-.1.1-.13.25-.04.2-.21.43-.02.5.28.1.32-.01.45-.21.06-.09.05-.24.12-.33.04-.06.11-.08.16-.12-.11-.44-.25-.86-.42-1.27-.04-.04-.09-.07-.15-.09-.1-.03-.04-.12-.18-.16-.15-.05-.21-.09-.22-.36-.01-.21.18.07.23.03.01,0,.02-.02.03-.04-.34-.64-.75-1.23-1.24-1.75m.56,5.22s0,.02-.02.03h1.63c0-.23-.03-.47-.06-.7-.01.02-.03.05-.04.07-.12.25-.14.1-.13,0,.01-.14.07-.27.12-.42-.01-.08-.03-.15-.04-.22-.05.07-.12.12-.23.17-.07.04-.14.21-.17.27-.03.08-.21-.02-.36.05-.26.12-.52.14-.33.41.12.17-.29.12-.38.34m-.37,9.15c-.06.14-.35.39-.3.48.6-.38,1.15-.81,1.67-1.3l-1.56-1.56c-.11.1-.22.2-.34.3-.03.18,0,.32.22.39.24.07.63.31.55.55-.09.21-.33.52-.44.73-.1.18.28.25.2.42m1.68-1.38l.12.12c1.8-1.9,2.93-4.44,3.01-7.24h-2.21c-.08,2.19-.96,4.18-2.36,5.68l.8.8s.01-.02.02-.03c.07-.14.04-.32.05-.45,0-.08.31-.06.33.07.02.12.08.2.18.49.08.21.11.4.06.56m-1.4-13.42s0,.02-.02.03c.36.39.69.82.98,1.28.03-.04.06-.08.11-.03.08.09-.08.25.15.21.14-.03.11.15,0,.25.07.13.14.26.21.39.08.04.14.08.16.13.04.15.11.33.13.5.11.28.21.56.29.85.11-.1.24-.04.26.12.01.16-.04.34-.11.48.1.48.16.97.18,1.47h2.21c-.04-1.43-.36-2.85-.93-4.15-.04.04-.1.04-.18.13-.11.14-.29-.04-.39-.16-.19-.23-.62-.87-.82-.9-.16-.03-.29-.24-.46-.28-.17-.04-.39-.13-.41-.31-.03-.19-.1-.26-.29-.29-.22-.03-.37-.12-.52-.28l-.53.53s0,.02,0,.03m3.09,15.99l-1.57-1.57c-.81.77-1.73,1.42-2.73,1.93-.33.25-.73.43-1.04.57-.13.06-.27.13-.41.13-.05,0-.09-.02-.13-.04-1.06.36-2.2.56-3.37.59v2.21c3.48-.08,6.74-1.43,9.25-3.83m-8.19-1.94c-.07-.08-.22-.08-.32-.06-.36.1-.24-.19-.74-.12v.28c.36-.01.71-.05,1.06-.11m-1.06.73v2.21c.9-.02,1.76-.16,2.59-.39-.17-.15-.25-.38-.46-.46-.37-.13-.47-.35-.27-.68.11-.18.06-.25-.06-.44-.15-.23-.35-.33-.5-.4-.43.08-.86.13-1.31.15m-.14-3.73c.24-.04.49-.11.7-.13.23-.02,0,.31.13.32.16.02.84.13.89-.02.04-.13.05-.18.19-.21.27-.06.49-.05.72-.23.08-.06.26-.09.31-.18.05-.1-.04-.54-.2-.47-.08.04-.18.15-.35.24-.16.08-.27.12-.38-.03-.1-.14.06-.24.14-.34.13-.14.25-.29.39-.29.06,0,.35-.15.33-.28-.03-.17-.38.02-.46-.06-.06-.05,0-.18-.04-.19-.04-.02-.17.16-.07.25.05.05-.08.19-.23.09-.12-.08-.15.35-.14.42.01.08.17.06.06.19-.11.14-.15.04-.22.1-.1.08-.12.12,0,.23.09.1-.06.28-.09.11-.02-.11-.26-.08-.3-.21-.05-.13-.24-.12-.47-.24-.18-.09-.15.18.15.25.26.06.24.09.17.25-.06.13-.05-.1-.35-.18-.19-.05-.2-.15-.36-.15-.16,0-.1.15-.27.11-.12-.03-.14.14-.26.19-.14.06-.13.31-.27.38-.21.1-.65.03-.63-.18.02-.21.03-.37.15-.44.11-.06.28.12.43.06.15-.07.12-.23.02-.34-.03-.04-.14-.09-.14-.13,0-.04.22-.06.34-.14s.23-.28.29-.32c.06-.05.18-.06.19-.1.02-.06-.08-.16-.08-.23,0-.07.03-.12.09-.12.05,0,.12.16.08.2-.04.04.03.11.1.08.07-.03.33-.13.41-.15.1-.03-.03-.26,0-.3.03-.04.06.01.1-.03.04-.04-.08-.08-.06-.16.01-.06.29-.14.21-.19-.07-.05-.17.09-.23.12-.14.06-.2-.09-.2-.2,0-.05.08-.25.01-.29-.09-.05-.1.18-.12.22-.02.07-.08.15.02.34.05.1.03.44-.08.48-.11.04-.16-.17-.21-.26,0-.02-.02-.03-.03-.03,0,0,0,0,0,0,0,0,0,0-.01,0h0s0,0-.01,0c0,0,0,0,0,0,0,0-.01.01-.02.02,0,.01-.02.04-.03.06,0,.01-.02.05-.05.11-.01.04-.04.06-.08.07-.11.01-.23.02-.35.02-.04,0-.09,0-.13,0,.02.07.04.14.06.19.06.12.18.21.16.3-.02.09-.38.16-.41.1-.04-.08.09-.23.08-.31-.02-.13-.08-.21-.08-.3-.63-.06-1.21-.31-1.67-.7l-1.57,1.57c.77.69,1.74,1.16,2.82,1.3.15-.09.21-.26.33-.17.19.14.42-.05.57-.07m-.48,2.95c-.31.02-.78.02-.89-.06-.23-.16-.51-.32-.54-.44-.06-.22-.36-.39-.36-.59,0-.23.32-.31.23-.54-.07-.19.11-.42.44-.58-.97-.24-1.85-.71-2.57-1.36l-1.57,1.57c1.44,1.34,3.28,2.1,5.25,2.17v-.16Zm0,.78c-1.96-.07-3.81-.77-5.3-2.02.03.04.06.08.09.12.1.17.46.53.23.68-.19.12-.5.04-.67.04-.19,0-.47.28-.63.31-.21.04-.33.02-.52-.06-.05-.02-.11-.06-.18-.11l-.25.25c1.9,1.8,4.44,2.93,7.24,3.01v-2.21Zm0,2.83c-2.97-.08-5.67-1.28-7.68-3.19l-1.57,1.57c2.51,2.4,5.77,3.75,9.25,3.83v-2.21Zm-10.69-11.3c.03,1.15.24,2.25.6,3.28.01,0,.02,0,.04,0,.22-.01.52,0,.67-.11.22-.17.02-.77.15-1.02.17-.31.59-1.04.72-1.05.11,0,.11.08.16.09-.07-.39-.11-.79-.12-1.19h-2.21Zm3.01-7.86c-1.8,1.9-2.93,4.44-3.01,7.24h2.21c.08-2.19.96-4.18,2.36-5.68l-1.56-1.56Zm7.68-1.23v-2.21c-2.8.08-5.34,1.21-7.24,3.01l1.56,1.56c1.5-1.4,3.49-2.28,5.68-2.36m0,2.83v-2.21c-2.02.08-3.86.89-5.24,2.18l1.56,1.56c.99-.89,2.27-1.46,3.68-1.53m-2.11,6.8s0-.03,0-.04c0,0,0,0,0-.01,0-.01,0-.02,0-.03,0,0,0,0,0-.01,0,0,0-.01,0-.02,0,0,0,0,0-.01,0,0,0,0,0-.01,0-.01,0-.03,0-.04h0s0-.03.01-.04c0,0,0,0,0-.01,0,0,0-.02,0-.03,0,0,0,0,0-.01,0,0,0-.02.01-.02,0,0,0,0,0,0,0,0,.01-.02.02-.02.02-.03.05-.03.08-.03.05,0,.12.04.19.05.05,0,.1-.01.14-.06.02-.02.04-.05.05-.08.01-.03.02-.05.02-.08,0-.01,0-.02,0-.03-.01-.02-.04-.03-.11,0-.01,0-.03,0-.04.01-.03,0-.05.01-.08.01-.01,0-.02,0-.04,0-.04,0-.07-.02-.09-.05,0-.01-.01-.02-.02-.04,0-.02-.02-.03-.03-.05-.04-.06-.1-.08-.16-.12-.03-.02-.06-.04-.09-.06-.01-.01-.03-.03-.04-.04-.01-.01-.02-.02-.03-.04,0,0,0,0-.01-.01,0,0-.01-.01-.02-.02,0,0-.01,0-.02-.01,0,0-.01,0-.02-.01,0,0-.01,0-.02-.01,0,0-.01,0-.02-.01,0,0-.02,0-.02-.01,0,0,0,0-.01,0,0,0-.02,0-.02-.01,0,0,0,0-.01,0-.01,0-.02,0-.03,0,0,0,0,0,0,0-.07-.01-.15,0-.23.08,0,0,0,0,0,0-.01.01-.02.02-.04.04,0,0,0,0,0,0-.01.01-.02.03-.04.05,0,0,0,0,0,0-.01.02-.02.04-.04.06-.02.04-.05.09-.07.15-.18.47-.39.33-.35.49,0,.02.05.03.13.04.03,0,.06,0,.1,0s.07,0,.11,0c.04,0,.08,0,.11-.01.02,0,.04,0,.06,0,.01,0,.02,0,.03,0,0,0,.02,0,.03,0,0,0,.02,0,.03,0,.01,0,.02,0,.03,0,0,0,.01,0,.02,0,.02,0,.03-.01.05-.02.02-.01.05-.02.07-.03t0,0s.05-.01.07-.02c.05,0,.09,0,.12,0,.02,0,.08.03.11.08.03.04.06.12.06.18m-1.57,2.7l1.57-1.57c-.13-.15-.24-.32-.34-.5h0s-.05.06-.06.09c-.03.07,0,.3-.09.4-.12.13-.46-.29-.57-.32-.14-.05-.21.11-.21.16.02.12,0,.17-.06.18-.05.01-.31-.17-.2-.21.14-.05-.04-.17-.09-.21-.1-.08-.26,0-.33-.11-.08-.11-.23-.19-.28-.2-.03,0-.19-.08-.29-.02-.08.04-.16-.04-.22-.1-.03-.03-.07-.07-.1-.1.19.96.63,1.83,1.26,2.53m-2.25-4.4c-.17-.02-.35.05-.44.2-.06.1-.08.22-.06.33h.79c0-.15.02-.3.04-.44-.1-.05-.22-.08-.33-.09m1.53-1.68s.04-.02.06-.03c.27-.15.62-.12.77-.06.19.08.44.3.55.39.05.04.07-.03.3-.07.1-.01.12.08.25.1.05,0,.1.01.14,0l-1.36-1.36c-.28.31-.52.66-.72,1.03m.28-1.46l-1.56-1.56c-1.29,1.39-2.1,3.22-2.18,5.24h1.1c.18-.29.12-.52.18-.69.06-.16.16-.31.25-.46.08-.13.17-.28.34-.28.36,0,.45-.19.67-.29.23-.1.63-.17.58-.28-.03-.08-.84.23-.85.17-.03-.11.25-.1.37-.2.02-.02.05-.04.07-.05.26-.59.61-1.13,1.03-1.6m-3.8,11.25s-.01,0-.02,0c.08.1.17.19.26.28l.18-.18c-.17-.1-.32-.17-.41-.12m.58-5.97c-.13-.15.09-.57.12-.65.03-.09.23-.2.29-.33h-.93c.02.49.08.96.18,1.43.22.08.65-.1.35-.45m1.3,3.73s0,.09-.01.13c.12.14.23.28.36.41l1.57-1.57c-.74-.82-1.25-1.84-1.45-2.97-.05.01-.09,0-.12-.04-.03-.06.01-.11.08-.17-.02-.17-.04-.33-.05-.5h-1.04c.01.17.08.41-.03.49-.09.07-.22,0-.3.01-.2.03-.25.27-.19.43.03.11.08.2.06.31-.02.11-.08.2.1.29.16.09.43.42.4.48-.03.07-.19-.07-.2.06,0,.08.24-.02.22.25,0,.16.03.34.08.45.1.23.21.38.2.64,0,.22-.05.45.05.66.1.21.27.38.27.62m5.46-8.26s-.15.17-.23.31c.26-.1.52-.16.79-.18v-2.22c-1.24.07-2.37.57-3.24,1.35l1.56,1.56c.18-.15.38-.28.59-.38.06-.03.11-.05.17-.08.11-.19.34-.4.36-.37m-9.12,12.8l1.57-1.57c-.31-.33-.6-.67-.87-1.03-.12-.05-.25-.12-.33-.22-.13-.17-.2-.41-.27-.41s0,.16-.15.18c-.19.03-.47-.46-.58-.63-.13-.21-.33-.21-.44-.4-.03-.06-.1-.23-.16-.13-.11.17-.48-.38-.57-.34-.1.04-.01.15-.07.2-.11.09-.42-.42-.53-.37-.11.05-.13.12-.14.25,0,.14.17.51.11.53-.09.04-.54-1.1-.44-1.16.05-.03.05.05.11.02.06-.04-.04-.12-.07-.24-.03-.13-.14-.13-.15-.27,0-.14.19-.1.19-.16,0-.07.02-.15.07-.2.07-.06.22,0,.26-.2.03-.17.12-.01.13.12.02.15.4.18.42.08.01-.06-.15-.06-.15-.12,0-.11.21,0,.35,0,.06,0,.17-.09.31-.02.15.08.25.12.35.13-.34-1.04-.54-2.15-.57-3.3h-2.21c.08,3.48,1.43,6.74,3.83,9.25m-4.45-9.56c0-3.86,1.5-7.49,4.23-10.21C13.24,1.5,16.86,0,20.73,0s7.49,1.5,10.21,4.23c2.73,2.73,4.23,6.35,4.23,10.21s-1.5,7.49-4.23,10.21c-2.73,2.73-6.35,4.23-10.21,4.23s-7.49-1.5-10.21-4.23c-2.73-2.73-4.23-6.35-4.23-10.21m8.13,1.69s.12-.51.1-.69c-.02-.18-.11-.35-.14-.34-.03.02.02.13.02.3,0,.26-.12.48-.12.57,0,.08.08.27.13.16m.07.7c0-.1,0-.38-.07-.44s-.06.05-.11.04c-.04,0-.04-.14-.08-.14-.05,0,.02.23.07.36.05.13.18.35.19.17m3.04.02c.06,0,.11-.23.07-.34-.04-.11-.25-.03-.27.02-.02.05.13.32.19.32m2.32-2.5c-.21-.05-.17.06-.29.08-.21.02-.02-.16-.13-.24-.05-.04-.17.15-.18.26,0,.05,0,.24.08.24.09,0,.56.06.72.1.18.04,0-.39-.2-.44m-.44-.28c.1,0,.1-.08.16-.08.06,0,.01.08.12.08s.21-.27-.12-.27c-.27,0-.24.26-.15.27m.48,2.5c-.02-.06-.13-.05-.1,0,.03.06-.03.12.02.19.07.08.23.07.31,0,.05-.05.02-.14-.02-.16-.06-.03-.2.03-.22-.04m3.68-14.63c-.33-.15-1.59-.15-1.56.18.03.28.73.02.91,0,.18-.02.95-.03.65-.18m-1.51.76c-.25-.16-.04-.38-.24-.53-.14-.1-.53,0-.62.12-.17.22.22.14.36.21.15.07.49.36.55.3.06-.06-.01-.07-.04-.1m5.69,1.63c.12.05.12-.18-.09-.35-.21-.17-.49-.09-.41,0,.07.08.39.31.5.36m1.32,6.45c0,.07.2.55.22.68.02.13.06.53.17.48.07-.03.06-.27.05-.36-.04-.27-.1-.51-.2-.82-.05-.16-.29-.7-.36-.68-.07.02.12.39.14.51.02.08,0,.11-.01.18m-2.5-.02c-.11,0-.14.13-.03.18.05.03.21,0,.28-.04.08-.05.16-.11.15-.22-.01-.07-.17-.27-.09-.35.09-.08.19.05.28.01.11-.04.1-.11.1-.2,0-.13-.05-.3-.2-.3-.11,0-.31.3-.32.32-.02.03-.05.14,0,.25.07.16.04.34-.17.34m1.84,4.8c-.13,0-.28.2-.24.2.1,0,.17.07.25.06.14-.03.12-.26,0-.26m-5.09-4.46c.06.03.34-.12.29-.16-.05-.04-.38-.19-.39-.1,0,.15.03.23.1.26m-.09.09c-.1-.05-.53.46-.46.54.03.03.5-.52.46-.54m-2.89,6.68c.11-.16-.16-.26-.23.02-.06.26.12.14.23-.02M5.08,6.07s.01,0,.02,0c0,0,0,0,.01,0,.26-.2,1.28-1,1.64-1.35.53-.46.92-1.05,1.32-1.62.41-.6.85-1.18,1.39-1.66.04-.04.08-.07.12-.11,0,0,.02-.04,0-.06-.94.26-1.91.64-2.64,1.28-1.35,1.07-1.82,3.24-1.87,3.53,0,0,0,.01,0,.01m-1.95,3.6c0,.25,0,.46-.02.6,0,0,0,0,0,0,0,0,0,0,0,.01,0,.02.04-.01.04-.01,0,0,0,0,0-.01.21-.27.88-1.1,1.79-1.86.51-.42,1.05-.83,1.53-1.29.67-.64,1.05-1.71,1.17-2.29,0-.05.02-.09.02-.11-.01,0-.05,0-.06.02-.07.09-.14.18-.2.27-.39.53-.8.84-1.33,1.2-.9.57-1.53,1-2.04,1.69,0,0,0,.01-.01.02-.02.04-.07.02-.06-.02.15-.5.22-.81.33-1.26.18-.73.26-1.69.53-2.33.17-.41.42-.75.74-1.06,0,0,0,0,0,0,.01-.04,0-.07,0-.07-.05.01-.12.04-.18.07-.94.47-1.57,1.23-2,2.18-.26.59-.33,1.2-.33,1.82,0,.21,0,.42.02.62.02.52.05,1.26.05,1.82m-1.43,3.73c.24.69.56,1.7.63,1.97,0,0,.05-.01.05-.03.19-.73.99-2.16,1.49-2.83.04-.05.07-.1.11-.14.5-.66,1.03-1.3,1.36-2.06.23-.53.58-1.66.61-1.77,0,0-.01,0-.03,0,0,0-.04,0-.06.01,0,0-.01,0-.02.01,0,0,0,0,0,.01-.36.55-.96,1.17-1.37,1.53-.66.54-1.17.95-1.57,1.73-.04.08-.09.2-.14.32-.12.28-.24.62-.24.63,0,.02-.04.05-.06.01-.01-.04.07-.96.07-1.09.04-.75-.11-1.49-.21-2.24-.13-.94-.21-1.72.04-2.82.02-.07.04-.15.06-.22.02-.06.03-.1.05-.16,0,0-.01-.05-.03-.06-.99,1.2-1.55,3.4-1.3,5.09.09.6.51,1.98.56,2.12m1.61,7.11s0,0,0,0c.04-.03.03-.04.02-.12-.1-1.03.06-1.86.4-2.83.5-1.45.99-2.94,1.15-4.47.02-.2.04-.52.04-.61-.01,0-.06.02-.06.03-.22.54-.73,1.35-1.02,1.82-.56.89-1.21,1.77-1.29,2.84-.02.27-.02.63.02.92,0,0-.01.03-.03.03,0,0-.02,0-.02-.02-.07-.26-.15-.57-.25-.91-.52-1.76-1.76-2.86-1.76-5.44,0-.01-.03-.06-.05-.06-.03.04-.11.23-.17.44-1.11,3.58,1.14,6.14,1.59,6.69.41.5,1.08,1.2,1.43,1.7m.39,3.34c.75.5,1.88,1.16,2.27,1.42,0,0,0,0,0,0,0,0,.03-.05.02-.07,0,0,0-.01,0-.02-.5-.98-.57-2.05-.66-3.13-.07-.93.1-2.1.05-3.01-.04-.75-.28-1.56-.47-2.21-.03-.09-.04-.1-.04-.11-.02,0-.04.04-.05.05,0,0,0,0,0,.01-.1,1.11-.5,2.11-.64,3.02-.17,1.07-.05,2.44.23,3.22.02.05-.03.06-.04.03-.59-.89-1.86-2.18-2.52-2.86-.84-.89-1.42-1.71-1.74-2.73,0,0-.05-.04-.06-.03,0,.01,0,.1-.01.14-.02,1.43.44,2.82,1.25,3.99.64.93,1.47,1.67,2.4,2.29m6.14,4.93c.06.01.12.02.22.04,0,0,0,0,0,0,0-.02-.01-.04-.01-.04,0,0-.05-.05-.06-.06-.66-.66-1.07-1.47-1.39-2.33-.23-.64-.44-1.28-.67-1.92-.32-.9-.99-2.35-1.8-3.28,0,0,0,0,0,0,0,.01-.02.04-.02.07.27.81.29,1.71.4,2.55.33,2.4,1.44,3.53,1.47,3.57.03.03,0,.07-.02.05-.05-.04-.09-.07-.14-.11-.75-.62-1.51-1-2.4-1.41-.71-.33-1.31-.62-1.95-1.06-1.33-.91-1.87-1.62-1.9-1.66-.02-.02-.05-.02-.07,0,.09.33.23.62.37.92.55,1.15,1.41,2.05,2.41,2.82,1,.77,2.09,1.21,3.33,1.42.74.12,1.48.3,2.22.45m.84,2.23c.9-.06,1.77-.26,2.64-.49.56-.15,1.66-.39,2.04-.48,0,0,.02,0,.02,0,0,0,0,0,0,0,0,0-.01-.03-.02-.04,0,0-.03-.01-.04-.02-.49-.13-1.84-.52-2.79-1.42-.6-.56-1.17-1.16-1.77-1.72-.48-.45-1.55-1.36-1.63-1.39-.01,0-.01.05-.01.06.16.21.72,1.49,1.06,2.15.5.95,1.16,1.7,2.13,2.06,0,0,.01,0,.02.01.02.02,0,.05-.08.04,0,0-.01,0-.02,0-1.09-.18-2.16-.22-3.26-.28-.84-.04-1.7-.1-2.5-.37-.53-.18-.95-.35-1.59-.84,0,0-.04-.01-.07,0,0,0,0,0,0,0,.72,1.08,1.99,1.99,3.02,2.38.9.34,1.87.44,2.85.37M31.98,1.43c.55.49.98,1.06,1.39,1.66.39.58.78,1.16,1.32,1.62.35.36,1.38,1.16,1.64,1.35,0,0,0,0,.01,0,0,0,.02,0,.02,0,0,0,0,0,0-.01-.05-.3-.52-2.46-1.87-3.53-.73-.63-1.7-1.02-2.64-1.28,0,.02,0,.06,0,.06.05.04.08.07.12.11m3.91,1.8c.32.31.56.66.74,1.06.27.64.35,1.6.53,2.33.11.44.17.75.33,1.26.01.04-.03.06-.06.02,0,0,0-.01-.01-.02-.51-.69-1.14-1.12-2.04-1.69-.53-.35-.94-.67-1.33-1.2-.07-.09-.14-.18-.2-.27,0,0-.05-.02-.06-.02,0,.02,0,.06.02.11.12.58.5,1.65,1.17,2.29.48.46,1.02.86,1.53,1.29.91.76,1.58,1.59,1.79,1.86,0,0,0,.01,0,.01,0,0,.04.03.04.01,0,0,0,0,0-.01,0,0,0,0,0,0-.01-.13-.02-.35-.02-.6,0-.56.03-1.31.05-1.82,0-.21.02-.42.02-.62,0-.62-.07-1.23-.33-1.82-.42-.95-1.05-1.71-2-2.18-.06-.03-.13-.06-.18-.07,0,0,0,.03,0,.07,0,0,0,0,0,0m1.09,6.85c-.41-.35-1.02-.98-1.37-1.53,0,0,0,0,0-.01,0,0-.01,0-.02-.01-.02-.01-.05-.02-.06-.01-.02,0-.03,0-.03,0,.02.11.38,1.24.6,1.77.33.76.86,1.4,1.36,2.06.04.05.07.1.11.14.5.67,1.3,2.1,1.49,2.83,0,.02.05.04.05.03.07-.26.39-1.28.63-1.97.05-.14.47-1.52.56-2.12.24-1.69-.32-3.89-1.3-5.09-.02,0-.03.05-.03.06.02.06.03.1.05.16.02.07.04.15.06.22.26,1.1.17,1.88.04,2.82-.1.75-.25,1.49-.21,2.24,0,.13.08,1.05.07,1.09-.01.04-.05,0-.06-.01,0,0-.12-.35-.24-.63-.05-.12-.1-.24-.14-.32-.4-.79-.91-1.2-1.57-1.73m1.94,8s-.02.02-.02.02c-.02,0-.03-.02-.03-.03.04-.29.04-.64.02-.92-.08-1.07-.72-1.95-1.29-2.84-.29-.46-.8-1.27-1.02-1.82,0,0-.04-.03-.06-.03,0,.1.01.41.04.61.16,1.53.64,3.02,1.15,4.47.34.97.5,1.8.4,2.83-.01.08-.01.09.02.12,0,0,0,0,0,0,.34-.5,1.01-1.19,1.43-1.7.45-.54,2.7-3.11,1.59-6.69-.07-.21-.15-.4-.17-.44-.02,0-.05.04-.05.06,0,2.57-1.24,3.68-1.76,5.44-.1.34-.18.65-.25.91m2.4-.62c-.32,1.02-.9,1.84-1.74,2.73-.66.68-1.93,1.97-2.52,2.86-.02.03-.06.01-.04-.03.28-.78.4-2.15.23-3.22-.15-.91-.54-1.9-.64-3.02,0,0,0,0,0-.01,0-.01-.03-.05-.05-.05,0,0-.01.02-.04.11-.19.65-.43,1.46-.47,2.21-.05.91.12,2.07.05,3.01-.09,1.08-.16,2.15-.66,3.13,0,0,0,.01,0,.02-.01.03.02.07.02.07,0,0,0,0,0,0,.4-.25,1.53-.92,2.27-1.42.93-.62,1.75-1.36,2.4-2.29.8-1.16,1.27-2.56,1.25-3.99,0-.05,0-.13,0-.14-.01,0-.05.03-.06.03m-1.45,5.71s-.57.75-1.9,1.66c-.64.45-1.24.74-1.95,1.06-.88.41-1.64.78-2.4,1.41-.05.04-.09.07-.14.11-.03.02-.05-.01-.02-.05.04-.04,1.14-1.17,1.47-3.57.12-.84.13-1.74.4-2.55,0-.03,0-.05-.02-.07,0,0,0,0,0,0-.81.93-1.49,2.37-1.8,3.28-.22.64-.44,1.28-.67,1.92-.31.86-.72,1.67-1.39,2.33,0,0-.06.06-.06.06,0,0,0,.02-.01.04,0,0,0,0,0,0,.1-.02.16-.02.22-.04.74-.15,1.47-.33,2.22-.45,1.24-.21,2.33-.65,3.33-1.42,1.01-.77,1.86-1.67,2.41-2.82.14-.3.28-.59.37-.92-.02,0-.05,0-.07,0m-3.31,5.08c-.64.49-1.06.66-1.59.84-.8.27-1.66.33-2.5.37-1.11.06-2.17.11-3.26.28,0,0-.01,0-.02,0-.07.01-.1-.02-.08-.04,0,0,.01,0,.02-.01.97-.36,1.63-1.11,2.13-2.06.34-.66.91-1.94,1.06-2.15,0,0,0-.05-.01-.06-.07.02-1.14.93-1.63,1.39-.6.56-1.17,1.16-1.77,1.72-.94.9-2.3,1.3-2.79,1.42-.01,0-.03.01-.04.02-.01.02-.02.04-.02.04,0,0,0,0,0,0,0,0,.02,0,.02,0,.38.09,1.48.33,2.04.48.87.23,1.74.43,2.63.49.97.07,1.94-.03,2.85-.37,1.03-.38,2.3-1.29,3.02-2.38,0,0,0,0,0,0-.03-.02-.07,0-.07,0m-3.54,3.22s.05.02.06.03c-.75.77-1.72,1.3-2.65,1.57-.69.2-1.38.23-2.09.15-1.09-.12-2.06-.56-2.96-1.16-.54-.36-1.08-.72-1.61-1.08-.62-.42-1.3-.5-2.01-.38-.39.04-.09.23-.03.26.96.47,1.86,1.03,2.71,1.69.57.42,1.6,1.41,1.6,1.41l-.77.66s-.58-.66-.84-.91c-1.68-1.75-3.17-2.52-3.5-2.71-.06-.03-.11-.06-.17-.06s-.11.03-.17.06c-.33.19-1.82.96-3.5,2.71-.25.25-.84.91-.84.91l-.77-.66s1.02-.99,1.6-1.41c.85-.65,1.75-1.22,2.71-1.69.06-.03.35-.21-.03-.26-.72-.12-1.39-.04-2.01.38-.54.37-1.07.73-1.61,1.08-.9.6-1.87,1.03-2.96,1.16-.71.08-1.4.05-2.09-.15-.93-.26-1.9-.8-2.65-1.57.01-.01.04-.03.06-.02.06.03.1.05.17.08,1.12.58,2.3.64,3.52.41.83-.16,1.6-.49,2.37-.82.55-.24,1.1-.5,1.67-.68,1.48-.49,2.97-.48,4.48-.1.02,0,.05.01.08.01.03,0,.05,0,.08-.01,1.5-.38,3-.39,4.48.1.57.19,1.12.45,1.67.68.77.33,1.54.66,2.37.82,1.22.23,2.4.17,3.52-.41.06-.03.1-.05.17-.08"/>
  <path class="cls-10" d="m302.33,24.18c0-1.2-.42-2.12-1.27-2.76-.85-.64-2.37-1.32-4.57-2.03-2.2-.71-3.94-1.42-5.23-2.11-3.5-1.89-5.25-4.44-5.25-7.64,0-1.66.47-3.15,1.41-4.45.94-1.31,2.29-2.32,4.04-3.06,1.76-.73,3.73-1.1,5.92-1.1s4.16.4,5.88,1.2c1.72.8,3.06,1.92,4.01,3.38.95,1.45,1.43,3.1,1.43,4.95h-6.35c0-1.41-.44-2.51-1.33-3.29-.89-.78-2.14-1.18-3.75-1.18s-2.76.33-3.62.98c-.86.66-1.29,1.52-1.29,2.59,0,1,.5,1.84,1.51,2.52,1.01.68,2.49,1.31,4.45,1.91,3.61,1.09,6.24,2.43,7.89,4.04,1.65,1.61,2.48,3.61,2.48,6.01,0,2.67-1.01,4.76-3.03,6.28-2.02,1.52-4.73,2.27-8.15,2.27-2.37,0-4.53-.43-6.48-1.3-1.95-.87-3.43-2.06-4.45-3.57-1.02-1.51-1.53-3.26-1.53-5.25h6.37c0,3.4,2.03,5.1,6.09,5.1,1.51,0,2.69-.31,3.53-.92.85-.61,1.27-1.47,1.27-2.57"/>
</svg>